<?xml version="1.0" encoding="utf-8" standalone="no"?>
<!DOCTYPE svg PUBLIC "-//W3C//DTD SVG 1.1//EN"
  "http://www.w3.org/Graphics/SVG/1.1/DTD/svg11.dtd">
<!-- Created with matplotlib (https://matplotlib.org/) -->
<svg height="1008pt" version="1.1" viewBox="0 0 1152 1008" width="1152pt" xmlns="http://www.w3.org/2000/svg" xmlns:xlink="http://www.w3.org/1999/xlink">
 <defs>
  <style type="text/css">
*{stroke-linecap:butt;stroke-linejoin:round;}
  </style>
 </defs>
 <g id="figure_1">
  <g id="patch_1">
   <path d="M 0 1008 
L 1152 1008 
L 1152 0 
L 0 0 
z
" style="fill:#ffffff;"/>
  </g>
  <g id="axes_1">
   <g id="patch_2">
    <path d="M 144 466.887273 
L 1036.8 466.887273 
L 1036.8 120.96 
L 144 120.96 
z
" style="fill:#ffffff;"/>
   </g>
   <g id="patch_3">
    <path clip-path="url(#p946f3f72b7)" d="M 148.251429 466.887273 
L 156.754286 466.887273 
L 156.754286 453.494812 
L 148.251429 453.494812 
z
" style="fill:#176d9c;"/>
   </g>
   <g id="patch_4">
    <path clip-path="url(#p946f3f72b7)" d="M 190.765714 466.887273 
L 199.268571 466.887273 
L 199.268571 456.36303 
L 190.765714 456.36303 
z
" style="fill:#176d9c;"/>
   </g>
   <g id="patch_5">
    <path clip-path="url(#p946f3f72b7)" d="M 233.28 466.887273 
L 241.782857 466.887273 
L 241.782857 457.322463 
L 233.28 457.322463 
z
" style="fill:#176d9c;"/>
   </g>
   <g id="patch_6">
    <path clip-path="url(#p946f3f72b7)" d="M 275.794286 466.887273 
L 284.297143 466.887273 
L 284.297143 137.432727 
L 275.794286 137.432727 
z
" style="fill:#176d9c;"/>
   </g>
   <g id="patch_7">
    <path clip-path="url(#p946f3f72b7)" d="M 318.308571 466.887273 
L 326.811429 466.887273 
L 326.811429 442.727273 
L 318.308571 442.727273 
z
" style="fill:#176d9c;"/>
   </g>
   <g id="patch_8">
    <path clip-path="url(#p946f3f72b7)" d="M 360.822857 466.887273 
L 369.325714 466.887273 
L 369.325714 456.903802 
L 360.822857 456.903802 
z
" style="fill:#176d9c;"/>
   </g>
   <g id="patch_9">
    <path clip-path="url(#p946f3f72b7)" d="M 403.337143 466.887273 
L 411.84 466.887273 
L 411.84 464.141818 
L 403.337143 464.141818 
z
" style="fill:#176d9c;"/>
   </g>
   <g id="patch_10">
    <path clip-path="url(#p946f3f72b7)" d="M 445.851429 466.887273 
L 454.354286 466.887273 
L 454.354286 461.396364 
L 445.851429 461.396364 
z
" style="fill:#176d9c;"/>
   </g>
   <g id="patch_11">
    <path clip-path="url(#p946f3f72b7)" d="M 488.365714 466.887273 
L 496.868571 466.887273 
L 496.868571 458.101818 
L 488.365714 458.101818 
z
" style="fill:#176d9c;"/>
   </g>
   <g id="patch_12">
    <path clip-path="url(#p946f3f72b7)" d="M 530.88 466.887273 
L 539.382857 466.887273 
L 539.382857 453.709091 
L 530.88 453.709091 
z
" style="fill:#176d9c;"/>
   </g>
   <g id="patch_13">
    <path clip-path="url(#p946f3f72b7)" d="M 573.394286 466.887273 
L 581.897143 466.887273 
L 581.897143 463.74961 
L 573.394286 463.74961 
z
" style="fill:#176d9c;"/>
   </g>
   <g id="patch_14">
    <path clip-path="url(#p946f3f72b7)" d="M 615.908571 466.887273 
L 624.411429 466.887273 
L 624.411429 465.318442 
L 615.908571 465.318442 
z
" style="fill:#176d9c;"/>
   </g>
   <g id="patch_15">
    <path clip-path="url(#p946f3f72b7)" d="M 658.422857 466.887273 
L 666.925714 466.887273 
L 666.925714 465.789091 
L 658.422857 465.789091 
z
" style="fill:#176d9c;"/>
   </g>
   <g id="patch_16">
    <path clip-path="url(#p946f3f72b7)" d="M 700.937143 466.887273 
L 709.44 466.887273 
L 709.44 463.74961 
L 700.937143 463.74961 
z
" style="fill:#176d9c;"/>
   </g>
   <g id="patch_17">
    <path clip-path="url(#p946f3f72b7)" d="M 743.451429 466.887273 
L 751.954286 466.887273 
L 751.954286 465.888926 
L 743.451429 465.888926 
z
" style="fill:#176d9c;"/>
   </g>
   <g id="patch_18">
    <path clip-path="url(#p946f3f72b7)" d="z
" style="fill:#176d9c;"/>
   </g>
   <g id="patch_19">
    <path clip-path="url(#p946f3f72b7)" d="z
" style="fill:#176d9c;"/>
   </g>
   <g id="patch_20">
    <path clip-path="url(#p946f3f72b7)" d="z
" style="fill:#176d9c;"/>
   </g>
   <g id="patch_21">
    <path clip-path="url(#p946f3f72b7)" d="z
" style="fill:#176d9c;"/>
   </g>
   <g id="patch_22">
    <path clip-path="url(#p946f3f72b7)" d="z
" style="fill:#176d9c;"/>
   </g>
   <g id="patch_23">
    <path clip-path="url(#p946f3f72b7)" d="z
" style="fill:#176d9c;"/>
   </g>
   <g id="patch_24">
    <path clip-path="url(#p946f3f72b7)" d="M 156.754286 466.887273 
L 165.257143 466.887273 
L 165.257143 436.62031 
L 156.754286 436.62031 
z
" style="fill:#c38820;"/>
   </g>
   <g id="patch_25">
    <path clip-path="url(#p946f3f72b7)" d="M 199.268571 466.887273 
L 207.771429 466.887273 
L 207.771429 441.491818 
L 199.268571 441.491818 
z
" style="fill:#c38820;"/>
   </g>
   <g id="patch_26">
    <path clip-path="url(#p946f3f72b7)" d="M 241.782857 466.887273 
L 250.285714 466.887273 
L 250.285714 431.816305 
L 241.782857 431.816305 
z
" style="fill:#c38820;"/>
   </g>
   <g id="patch_27">
    <path clip-path="url(#p946f3f72b7)" d="M 284.297143 466.887273 
L 292.8 466.887273 
L 292.8 203.323636 
L 284.297143 203.323636 
z
" style="fill:#c38820;"/>
   </g>
   <g id="patch_28">
    <path clip-path="url(#p946f3f72b7)" d="M 326.811429 466.887273 
L 335.314286 466.887273 
L 335.314286 416.370909 
L 326.811429 416.370909 
z
" style="fill:#c38820;"/>
   </g>
   <g id="patch_29">
    <path clip-path="url(#p946f3f72b7)" d="M 369.325714 466.887273 
L 377.828571 466.887273 
L 377.828571 424.956694 
L 369.325714 424.956694 
z
" style="fill:#c38820;"/>
   </g>
   <g id="patch_30">
    <path clip-path="url(#p946f3f72b7)" d="M 411.84 466.887273 
L 420.342857 466.887273 
L 420.342857 447.669091 
L 411.84 447.669091 
z
" style="fill:#c38820;"/>
   </g>
   <g id="patch_31">
    <path clip-path="url(#p946f3f72b7)" d="M 454.354286 466.887273 
L 462.857143 466.887273 
L 462.857143 462.769091 
L 454.354286 462.769091 
z
" style="fill:#c38820;"/>
   </g>
   <g id="patch_32">
    <path clip-path="url(#p946f3f72b7)" d="M 496.868571 466.887273 
L 505.371429 466.887273 
L 505.371429 431.745455 
L 496.868571 431.745455 
z
" style="fill:#c38820;"/>
   </g>
   <g id="patch_33">
    <path clip-path="url(#p946f3f72b7)" d="M 539.382857 466.887273 
L 547.885714 466.887273 
L 547.885714 436.138182 
L 539.382857 436.138182 
z
" style="fill:#c38820;"/>
   </g>
   <g id="patch_34">
    <path clip-path="url(#p946f3f72b7)" d="M 581.897143 466.887273 
L 590.4 466.887273 
L 590.4 454.336623 
L 581.897143 454.336623 
z
" style="fill:#c38820;"/>
   </g>
   <g id="patch_35">
    <path clip-path="url(#p946f3f72b7)" d="M 624.411429 466.887273 
L 632.914286 466.887273 
L 632.914286 451.983377 
L 624.411429 451.983377 
z
" style="fill:#c38820;"/>
   </g>
   <g id="patch_36">
    <path clip-path="url(#p946f3f72b7)" d="M 666.925714 466.887273 
L 675.428571 466.887273 
L 675.428571 448.218182 
L 666.925714 448.218182 
z
" style="fill:#c38820;"/>
   </g>
   <g id="patch_37">
    <path clip-path="url(#p946f3f72b7)" d="M 709.44 466.887273 
L 717.942857 466.887273 
L 717.942857 463.74961 
L 709.44 463.74961 
z
" style="fill:#c38820;"/>
   </g>
   <g id="patch_38">
    <path clip-path="url(#p946f3f72b7)" d="M 751.954286 466.887273 
L 760.457143 466.887273 
L 760.457143 454.907107 
L 751.954286 454.907107 
z
" style="fill:#c38820;"/>
   </g>
   <g id="patch_39">
    <path clip-path="url(#p946f3f72b7)" d="M 794.468571 466.887273 
L 802.971429 466.887273 
L 802.971429 446.492468 
L 794.468571 446.492468 
z
" style="fill:#c38820;"/>
   </g>
   <g id="patch_40">
    <path clip-path="url(#p946f3f72b7)" d="M 836.982857 466.887273 
L 845.485714 466.887273 
L 845.485714 444.923636 
L 836.982857 444.923636 
z
" style="fill:#c38820;"/>
   </g>
   <g id="patch_41">
    <path clip-path="url(#p946f3f72b7)" d="z
" style="fill:#c38820;"/>
   </g>
   <g id="patch_42">
    <path clip-path="url(#p946f3f72b7)" d="z
" style="fill:#c38820;"/>
   </g>
   <g id="patch_43">
    <path clip-path="url(#p946f3f72b7)" d="z
" style="fill:#c38820;"/>
   </g>
   <g id="patch_44">
    <path clip-path="url(#p946f3f72b7)" d="z
" style="fill:#c38820;"/>
   </g>
   <g id="patch_45">
    <path clip-path="url(#p946f3f72b7)" d="M 165.257143 466.887273 
L 173.76 466.887273 
L 173.76 420.549357 
L 165.257143 420.549357 
z
" style="fill:#158b6a;"/>
   </g>
   <g id="patch_46">
    <path clip-path="url(#p946f3f72b7)" d="M 207.771429 466.887273 
L 216.274286 466.887273 
L 216.274286 425.934242 
L 207.771429 425.934242 
z
" style="fill:#158b6a;"/>
   </g>
   <g id="patch_47">
    <path clip-path="url(#p946f3f72b7)" d="M 250.285714 466.887273 
L 258.788571 466.887273 
L 258.788571 419.77173 
L 250.285714 419.77173 
z
" style="fill:#158b6a;"/>
   </g>
   <g id="patch_48">
    <path clip-path="url(#p946f3f72b7)" d="M 292.8 466.887273 
L 301.302857 466.887273 
L 301.302857 247.250909 
L 292.8 247.250909 
z
" style="fill:#158b6a;"/>
   </g>
   <g id="patch_49">
    <path clip-path="url(#p946f3f72b7)" d="M 335.314286 466.887273 
L 343.817143 466.887273 
L 343.817143 363.658182 
L 335.314286 363.658182 
z
" style="fill:#158b6a;"/>
   </g>
   <g id="patch_50">
    <path clip-path="url(#p946f3f72b7)" d="M 377.828571 466.887273 
L 386.331429 466.887273 
L 386.331429 412.976529 
L 377.828571 412.976529 
z
" style="fill:#158b6a;"/>
   </g>
   <g id="patch_51">
    <path clip-path="url(#p946f3f72b7)" d="M 420.342857 466.887273 
L 428.845714 466.887273 
L 428.845714 402.369091 
L 420.342857 402.369091 
z
" style="fill:#158b6a;"/>
   </g>
   <g id="patch_52">
    <path clip-path="url(#p946f3f72b7)" d="M 462.857143 466.887273 
L 471.36 466.887273 
L 471.36 420.214545 
L 462.857143 420.214545 
z
" style="fill:#158b6a;"/>
   </g>
   <g id="patch_53">
    <path clip-path="url(#p946f3f72b7)" d="M 505.371429 466.887273 
L 513.874286 466.887273 
L 513.874286 398.8 
L 505.371429 398.8 
z
" style="fill:#158b6a;"/>
   </g>
   <g id="patch_54">
    <path clip-path="url(#p946f3f72b7)" d="M 547.885714 466.887273 
L 556.388571 466.887273 
L 556.388571 422.96 
L 547.885714 422.96 
z
" style="fill:#158b6a;"/>
   </g>
   <g id="patch_55">
    <path clip-path="url(#p946f3f72b7)" d="M 590.4 466.887273 
L 598.902857 466.887273 
L 598.902857 419.822338 
L 590.4 419.822338 
z
" style="fill:#158b6a;"/>
   </g>
   <g id="patch_56">
    <path clip-path="url(#p946f3f72b7)" d="M 632.914286 466.887273 
L 641.417143 466.887273 
L 641.417143 397.858701 
L 632.914286 397.858701 
z
" style="fill:#158b6a;"/>
   </g>
   <g id="patch_57">
    <path clip-path="url(#p946f3f72b7)" d="M 675.428571 466.887273 
L 683.931429 466.887273 
L 683.931429 375.738182 
L 675.428571 375.738182 
z
" style="fill:#158b6a;"/>
   </g>
   <g id="patch_58">
    <path clip-path="url(#p946f3f72b7)" d="M 717.942857 466.887273 
L 726.445714 466.887273 
L 726.445714 413.547013 
L 717.942857 413.547013 
z
" style="fill:#158b6a;"/>
   </g>
   <g id="patch_59">
    <path clip-path="url(#p946f3f72b7)" d="M 760.457143 466.887273 
L 768.96 466.887273 
L 768.96 404.989752 
L 760.457143 404.989752 
z
" style="fill:#158b6a;"/>
   </g>
   <g id="patch_60">
    <path clip-path="url(#p946f3f72b7)" d="M 802.971429 466.887273 
L 811.474286 466.887273 
L 811.474286 422.96 
L 802.971429 422.96 
z
" style="fill:#158b6a;"/>
   </g>
   <g id="patch_61">
    <path clip-path="url(#p946f3f72b7)" d="M 845.485714 466.887273 
L 853.988571 466.887273 
L 853.988571 400.996364 
L 845.485714 400.996364 
z
" style="fill:#158b6a;"/>
   </g>
   <g id="patch_62">
    <path clip-path="url(#p946f3f72b7)" d="M 888 466.887273 
L 896.502857 466.887273 
L 896.502857 357.069091 
L 888 357.069091 
z
" style="fill:#158b6a;"/>
   </g>
   <g id="patch_63">
    <path clip-path="url(#p946f3f72b7)" d="M 930.514286 466.887273 
L 939.017143 466.887273 
L 939.017143 411.978182 
L 930.514286 411.978182 
z
" style="fill:#158b6a;"/>
   </g>
   <g id="patch_64">
    <path clip-path="url(#p946f3f72b7)" d="M 973.028571 466.887273 
L 981.531429 466.887273 
L 981.531429 379.032727 
L 973.028571 379.032727 
z
" style="fill:#158b6a;"/>
   </g>
   <g id="patch_65">
    <path clip-path="url(#p946f3f72b7)" d="M 1015.542857 466.887273 
L 1024.045714 466.887273 
L 1024.045714 400.996364 
L 1015.542857 400.996364 
z
" style="fill:#158b6a;"/>
   </g>
   <g id="patch_66">
    <path clip-path="url(#p946f3f72b7)" d="M 173.76 466.887273 
L 182.262857 466.887273 
L 182.262857 429.120532 
L 173.76 429.120532 
z
" style="fill:#ba611b;"/>
   </g>
   <g id="patch_67">
    <path clip-path="url(#p946f3f72b7)" d="M 216.274286 466.887273 
L 224.777143 466.887273 
L 224.777143 437.373636 
L 216.274286 437.373636 
z
" style="fill:#ba611b;"/>
   </g>
   <g id="patch_68">
    <path clip-path="url(#p946f3f72b7)" d="M 258.788571 466.887273 
L 267.291429 466.887273 
L 267.291429 433.941818 
L 258.788571 433.941818 
z
" style="fill:#ba611b;"/>
   </g>
   <g id="patch_69">
    <path clip-path="url(#p946f3f72b7)" d="M 301.302857 466.887273 
L 309.805714 466.887273 
L 309.805714 247.250909 
L 301.302857 247.250909 
z
" style="fill:#ba611b;"/>
   </g>
   <g id="patch_70">
    <path clip-path="url(#p946f3f72b7)" d="M 343.817143 466.887273 
L 352.32 466.887273 
L 352.32 405.389091 
L 343.817143 405.389091 
z
" style="fill:#ba611b;"/>
   </g>
   <g id="patch_71">
    <path clip-path="url(#p946f3f72b7)" d="M 386.331429 466.887273 
L 394.834286 466.887273 
L 394.834286 438.933554 
L 386.331429 438.933554 
z
" style="fill:#ba611b;"/>
   </g>
   <g id="patch_72">
    <path clip-path="url(#p946f3f72b7)" d="M 428.845714 466.887273 
L 437.348571 466.887273 
L 437.348571 427.764545 
L 428.845714 427.764545 
z
" style="fill:#ba611b;"/>
   </g>
   <g id="patch_73">
    <path clip-path="url(#p946f3f72b7)" d="M 471.36 466.887273 
L 479.862857 466.887273 
L 479.862857 418.841818 
L 471.36 418.841818 
z
" style="fill:#ba611b;"/>
   </g>
   <g id="patch_74">
    <path clip-path="url(#p946f3f72b7)" d="M 513.874286 466.887273 
L 522.377143 466.887273 
L 522.377143 407.585455 
L 513.874286 407.585455 
z
" style="fill:#ba611b;"/>
   </g>
   <g id="patch_75">
    <path clip-path="url(#p946f3f72b7)" d="M 556.388571 466.887273 
L 564.891429 466.887273 
L 564.891429 431.745455 
L 556.388571 431.745455 
z
" style="fill:#ba611b;"/>
   </g>
   <g id="patch_76">
    <path clip-path="url(#p946f3f72b7)" d="M 598.902857 466.887273 
L 607.405714 466.887273 
L 607.405714 438.648312 
L 598.902857 438.648312 
z
" style="fill:#ba611b;"/>
   </g>
   <g id="patch_77">
    <path clip-path="url(#p946f3f72b7)" d="M 641.417143 466.887273 
L 649.92 466.887273 
L 649.92 428.450909 
L 641.417143 428.450909 
z
" style="fill:#ba611b;"/>
   </g>
   <g id="patch_78">
    <path clip-path="url(#p946f3f72b7)" d="M 683.931429 466.887273 
L 692.434286 466.887273 
L 692.434286 410.88 
L 683.931429 410.88 
z
" style="fill:#ba611b;"/>
   </g>
   <g id="patch_79">
    <path clip-path="url(#p946f3f72b7)" d="M 726.445714 466.887273 
L 734.948571 466.887273 
L 734.948571 407.271688 
L 726.445714 407.271688 
z
" style="fill:#ba611b;"/>
   </g>
   <g id="patch_80">
    <path clip-path="url(#p946f3f72b7)" d="M 768.96 466.887273 
L 777.462857 466.887273 
L 777.462857 430.946777 
L 768.96 430.946777 
z
" style="fill:#ba611b;"/>
   </g>
   <g id="patch_81">
    <path clip-path="url(#p946f3f72b7)" d="M 811.474286 466.887273 
L 819.977143 466.887273 
L 819.977143 441.785974 
L 811.474286 441.785974 
z
" style="fill:#ba611b;"/>
   </g>
   <g id="patch_82">
    <path clip-path="url(#p946f3f72b7)" d="M 853.988571 466.887273 
L 862.491429 466.887273 
L 862.491429 400.996364 
L 853.988571 400.996364 
z
" style="fill:#ba611b;"/>
   </g>
   <g id="patch_83">
    <path clip-path="url(#p946f3f72b7)" d="M 896.502857 466.887273 
L 905.005714 466.887273 
L 905.005714 357.069091 
L 896.502857 357.069091 
z
" style="fill:#ba611b;"/>
   </g>
   <g id="patch_84">
    <path clip-path="url(#p946f3f72b7)" d="M 939.017143 466.887273 
L 947.52 466.887273 
L 947.52 444.923636 
L 939.017143 444.923636 
z
" style="fill:#ba611b;"/>
   </g>
   <g id="patch_85">
    <path clip-path="url(#p946f3f72b7)" d="M 981.531429 466.887273 
L 990.034286 466.887273 
L 990.034286 379.032727 
L 981.531429 379.032727 
z
" style="fill:#ba611b;"/>
   </g>
   <g id="patch_86">
    <path clip-path="url(#p946f3f72b7)" d="M 1024.045714 466.887273 
L 1032.548571 466.887273 
L 1032.548571 444.923636 
L 1024.045714 444.923636 
z
" style="fill:#ba611b;"/>
   </g>
   <g id="matplotlib.axis_1">
    <g id="xtick_1">
     <g id="line2d_1">
      <defs>
       <path d="M 0 0 
L 0 3.5 
" id="m4dfe8b2052" style="stroke:#000000;stroke-width:0.8;"/>
      </defs>
      <g>
       <use style="stroke:#000000;stroke-width:0.8;" x="165.257143" xlink:href="#m4dfe8b2052" y="466.887273"/>
      </g>
     </g>
     <g id="text_1">
      <!-- BA -->
      <defs>
       <path d="M 19.671875 34.8125 
L 19.671875 8.109375 
L 35.5 8.109375 
Q 43.453125 8.109375 47.28125 11.40625 
Q 51.125 14.703125 51.125 21.484375 
Q 51.125 28.328125 47.28125 31.5625 
Q 43.453125 34.8125 35.5 34.8125 
z
M 19.671875 64.796875 
L 19.671875 42.828125 
L 34.28125 42.828125 
Q 41.5 42.828125 45.03125 45.53125 
Q 48.578125 48.25 48.578125 53.8125 
Q 48.578125 59.328125 45.03125 62.0625 
Q 41.5 64.796875 34.28125 64.796875 
z
M 9.8125 72.90625 
L 35.015625 72.90625 
Q 46.296875 72.90625 52.390625 68.21875 
Q 58.5 63.53125 58.5 54.890625 
Q 58.5 48.1875 55.375 44.234375 
Q 52.25 40.28125 46.1875 39.3125 
Q 53.46875 37.75 57.5 32.78125 
Q 61.53125 27.828125 61.53125 20.40625 
Q 61.53125 10.640625 54.890625 5.3125 
Q 48.25 0 35.984375 0 
L 9.8125 0 
z
" id="DejaVuSans-66"/>
       <path d="M 34.1875 63.1875 
L 20.796875 26.90625 
L 47.609375 26.90625 
z
M 28.609375 72.90625 
L 39.796875 72.90625 
L 67.578125 0 
L 57.328125 0 
L 50.6875 18.703125 
L 17.828125 18.703125 
L 11.1875 0 
L 0.78125 0 
z
" id="DejaVuSans-65"/>
      </defs>
      <g transform="translate(158.406362 481.48571)scale(0.1 -0.1)">
       <use xlink:href="#DejaVuSans-66"/>
       <use x="68.603516" xlink:href="#DejaVuSans-65"/>
      </g>
     </g>
    </g>
    <g id="xtick_2">
     <g id="line2d_2">
      <g>
       <use style="stroke:#000000;stroke-width:0.8;" x="207.771429" xlink:href="#m4dfe8b2052" y="466.887273"/>
      </g>
     </g>
     <g id="text_2">
      <!-- SP -->
      <defs>
       <path d="M 53.515625 70.515625 
L 53.515625 60.890625 
Q 47.90625 63.578125 42.921875 64.890625 
Q 37.9375 66.21875 33.296875 66.21875 
Q 25.25 66.21875 20.875 63.09375 
Q 16.5 59.96875 16.5 54.203125 
Q 16.5 49.359375 19.40625 46.890625 
Q 22.3125 44.4375 30.421875 42.921875 
L 36.375 41.703125 
Q 47.40625 39.59375 52.65625 34.296875 
Q 57.90625 29 57.90625 20.125 
Q 57.90625 9.515625 50.796875 4.046875 
Q 43.703125 -1.421875 29.984375 -1.421875 
Q 24.8125 -1.421875 18.96875 -0.25 
Q 13.140625 0.921875 6.890625 3.21875 
L 6.890625 13.375 
Q 12.890625 10.015625 18.65625 8.296875 
Q 24.421875 6.59375 29.984375 6.59375 
Q 38.421875 6.59375 43.015625 9.90625 
Q 47.609375 13.234375 47.609375 19.390625 
Q 47.609375 24.75 44.3125 27.78125 
Q 41.015625 30.8125 33.5 32.328125 
L 27.484375 33.5 
Q 16.453125 35.6875 11.515625 40.375 
Q 6.59375 45.0625 6.59375 53.421875 
Q 6.59375 63.09375 13.40625 68.65625 
Q 20.21875 74.21875 32.171875 74.21875 
Q 37.3125 74.21875 42.625 73.28125 
Q 47.953125 72.359375 53.515625 70.515625 
z
" id="DejaVuSans-83"/>
       <path d="M 19.671875 64.796875 
L 19.671875 37.40625 
L 32.078125 37.40625 
Q 38.96875 37.40625 42.71875 40.96875 
Q 46.484375 44.53125 46.484375 51.125 
Q 46.484375 57.671875 42.71875 61.234375 
Q 38.96875 64.796875 32.078125 64.796875 
z
M 9.8125 72.90625 
L 32.078125 72.90625 
Q 44.34375 72.90625 50.609375 67.359375 
Q 56.890625 61.8125 56.890625 51.125 
Q 56.890625 40.328125 50.609375 34.8125 
Q 44.34375 29.296875 32.078125 29.296875 
L 19.671875 29.296875 
L 19.671875 0 
L 9.8125 0 
z
" id="DejaVuSans-80"/>
      </defs>
      <g transform="translate(201.582366 481.48571)scale(0.1 -0.1)">
       <use xlink:href="#DejaVuSans-83"/>
       <use x="63.476562" xlink:href="#DejaVuSans-80"/>
      </g>
     </g>
    </g>
    <g id="xtick_3">
     <g id="line2d_3">
      <g>
       <use style="stroke:#000000;stroke-width:0.8;" x="250.285714" xlink:href="#m4dfe8b2052" y="466.887273"/>
      </g>
     </g>
     <g id="text_3">
      <!-- PE -->
      <defs>
       <path d="M 9.8125 72.90625 
L 55.90625 72.90625 
L 55.90625 64.59375 
L 19.671875 64.59375 
L 19.671875 43.015625 
L 54.390625 43.015625 
L 54.390625 34.71875 
L 19.671875 34.71875 
L 19.671875 8.296875 
L 56.78125 8.296875 
L 56.78125 0 
L 9.8125 0 
z
" id="DejaVuSans-69"/>
      </defs>
      <g transform="translate(244.111496 481.48571)scale(0.1 -0.1)">
       <use xlink:href="#DejaVuSans-80"/>
       <use x="60.302734" xlink:href="#DejaVuSans-69"/>
      </g>
     </g>
    </g>
    <g id="xtick_4">
     <g id="line2d_4">
      <g>
       <use style="stroke:#000000;stroke-width:0.8;" x="292.8" xlink:href="#m4dfe8b2052" y="466.887273"/>
      </g>
     </g>
     <g id="text_4">
      <!-- DF -->
      <defs>
       <path d="M 19.671875 64.796875 
L 19.671875 8.109375 
L 31.59375 8.109375 
Q 46.6875 8.109375 53.6875 14.9375 
Q 60.6875 21.78125 60.6875 36.53125 
Q 60.6875 51.171875 53.6875 57.984375 
Q 46.6875 64.796875 31.59375 64.796875 
z
M 9.8125 72.90625 
L 30.078125 72.90625 
Q 51.265625 72.90625 61.171875 64.09375 
Q 71.09375 55.28125 71.09375 36.53125 
Q 71.09375 17.671875 61.125 8.828125 
Q 51.171875 0 30.078125 0 
L 9.8125 0 
z
" id="DejaVuSans-68"/>
       <path d="M 9.8125 72.90625 
L 51.703125 72.90625 
L 51.703125 64.59375 
L 19.671875 64.59375 
L 19.671875 43.109375 
L 48.578125 43.109375 
L 48.578125 34.8125 
L 19.671875 34.8125 
L 19.671875 0 
L 9.8125 0 
z
" id="DejaVuSans-70"/>
      </defs>
      <g transform="translate(286.074219 481.48571)scale(0.1 -0.1)">
       <use xlink:href="#DejaVuSans-68"/>
       <use x="77.001953" xlink:href="#DejaVuSans-70"/>
      </g>
     </g>
    </g>
    <g id="xtick_5">
     <g id="line2d_5">
      <g>
       <use style="stroke:#000000;stroke-width:0.8;" x="335.314286" xlink:href="#m4dfe8b2052" y="466.887273"/>
      </g>
     </g>
     <g id="text_5">
      <!-- RJ -->
      <defs>
       <path d="M 44.390625 34.1875 
Q 47.5625 33.109375 50.5625 29.59375 
Q 53.5625 26.078125 56.59375 19.921875 
L 66.609375 0 
L 56 0 
L 46.6875 18.703125 
Q 43.0625 26.03125 39.671875 28.421875 
Q 36.28125 30.8125 30.421875 30.8125 
L 19.671875 30.8125 
L 19.671875 0 
L 9.8125 0 
L 9.8125 72.90625 
L 32.078125 72.90625 
Q 44.578125 72.90625 50.734375 67.671875 
Q 56.890625 62.453125 56.890625 51.90625 
Q 56.890625 45.015625 53.6875 40.46875 
Q 50.484375 35.9375 44.390625 34.1875 
z
M 19.671875 64.796875 
L 19.671875 38.921875 
L 32.078125 38.921875 
Q 39.203125 38.921875 42.84375 42.21875 
Q 46.484375 45.515625 46.484375 51.90625 
Q 46.484375 58.296875 42.84375 61.546875 
Q 39.203125 64.796875 32.078125 64.796875 
z
" id="DejaVuSans-82"/>
       <path d="M 9.8125 72.90625 
L 19.671875 72.90625 
L 19.671875 5.078125 
Q 19.671875 -8.109375 14.671875 -14.0625 
Q 9.671875 -20.015625 -1.421875 -20.015625 
L -5.171875 -20.015625 
L -5.171875 -11.71875 
L -2.09375 -11.71875 
Q 4.4375 -11.71875 7.125 -8.046875 
Q 9.8125 -4.390625 9.8125 5.078125 
z
" id="DejaVuSans-74"/>
      </defs>
      <g transform="translate(330.365067 481.48571)scale(0.1 -0.1)">
       <use xlink:href="#DejaVuSans-82"/>
       <use x="69.482422" xlink:href="#DejaVuSans-74"/>
      </g>
     </g>
    </g>
    <g id="xtick_6">
     <g id="line2d_6">
      <g>
       <use style="stroke:#000000;stroke-width:0.8;" x="377.828571" xlink:href="#m4dfe8b2052" y="466.887273"/>
      </g>
     </g>
     <g id="text_6">
      <!-- RO -->
      <defs>
       <path d="M 39.40625 66.21875 
Q 28.65625 66.21875 22.328125 58.203125 
Q 16.015625 50.203125 16.015625 36.375 
Q 16.015625 22.609375 22.328125 14.59375 
Q 28.65625 6.59375 39.40625 6.59375 
Q 50.140625 6.59375 56.421875 14.59375 
Q 62.703125 22.609375 62.703125 36.375 
Q 62.703125 50.203125 56.421875 58.203125 
Q 50.140625 66.21875 39.40625 66.21875 
z
M 39.40625 74.21875 
Q 54.734375 74.21875 63.90625 63.9375 
Q 73.09375 53.65625 73.09375 36.375 
Q 73.09375 19.140625 63.90625 8.859375 
Q 54.734375 -1.421875 39.40625 -1.421875 
Q 24.03125 -1.421875 14.8125 8.828125 
Q 5.609375 19.09375 5.609375 36.375 
Q 5.609375 53.65625 14.8125 63.9375 
Q 24.03125 74.21875 39.40625 74.21875 
z
" id="DejaVuSans-79"/>
      </defs>
      <g transform="translate(370.418415 481.48571)scale(0.1 -0.1)">
       <use xlink:href="#DejaVuSans-82"/>
       <use x="69.482422" xlink:href="#DejaVuSans-79"/>
      </g>
     </g>
    </g>
    <g id="xtick_7">
     <g id="line2d_7">
      <g>
       <use style="stroke:#000000;stroke-width:0.8;" x="420.342857" xlink:href="#m4dfe8b2052" y="466.887273"/>
      </g>
     </g>
     <g id="text_7">
      <!-- MT -->
      <defs>
       <path d="M 9.8125 72.90625 
L 24.515625 72.90625 
L 43.109375 23.296875 
L 61.8125 72.90625 
L 76.515625 72.90625 
L 76.515625 0 
L 66.890625 0 
L 66.890625 64.015625 
L 48.09375 14.015625 
L 38.1875 14.015625 
L 19.390625 64.015625 
L 19.390625 0 
L 9.8125 0 
z
" id="DejaVuSans-77"/>
       <path d="M -0.296875 72.90625 
L 61.375 72.90625 
L 61.375 64.59375 
L 35.5 64.59375 
L 35.5 0 
L 25.59375 0 
L 25.59375 64.59375 
L -0.296875 64.59375 
z
" id="DejaVuSans-84"/>
      </defs>
      <g transform="translate(412.974888 481.48571)scale(0.1 -0.1)">
       <use xlink:href="#DejaVuSans-77"/>
       <use x="86.279297" xlink:href="#DejaVuSans-84"/>
      </g>
     </g>
    </g>
    <g id="xtick_8">
     <g id="line2d_8">
      <g>
       <use style="stroke:#000000;stroke-width:0.8;" x="462.857143" xlink:href="#m4dfe8b2052" y="466.887273"/>
      </g>
     </g>
     <g id="text_8">
      <!-- SC -->
      <defs>
       <path d="M 64.40625 67.28125 
L 64.40625 56.890625 
Q 59.421875 61.53125 53.78125 63.8125 
Q 48.140625 66.109375 41.796875 66.109375 
Q 29.296875 66.109375 22.65625 58.46875 
Q 16.015625 50.828125 16.015625 36.375 
Q 16.015625 21.96875 22.65625 14.328125 
Q 29.296875 6.6875 41.796875 6.6875 
Q 48.140625 6.6875 53.78125 8.984375 
Q 59.421875 11.28125 64.40625 15.921875 
L 64.40625 5.609375 
Q 59.234375 2.09375 53.4375 0.328125 
Q 47.65625 -1.421875 41.21875 -1.421875 
Q 24.65625 -1.421875 15.125 8.703125 
Q 5.609375 18.84375 5.609375 36.375 
Q 5.609375 53.953125 15.125 64.078125 
Q 24.65625 74.21875 41.21875 74.21875 
Q 47.75 74.21875 53.53125 72.484375 
Q 59.328125 70.75 64.40625 67.28125 
z
" id="DejaVuSans-67"/>
      </defs>
      <g transform="translate(456.191518 481.48571)scale(0.1 -0.1)">
       <use xlink:href="#DejaVuSans-83"/>
       <use x="63.476562" xlink:href="#DejaVuSans-67"/>
      </g>
     </g>
    </g>
    <g id="xtick_9">
     <g id="line2d_9">
      <g>
       <use style="stroke:#000000;stroke-width:0.8;" x="505.371429" xlink:href="#m4dfe8b2052" y="466.887273"/>
      </g>
     </g>
     <g id="text_9">
      <!-- SE -->
      <g transform="translate(499.037835 481.48571)scale(0.1 -0.1)">
       <use xlink:href="#DejaVuSans-83"/>
       <use x="63.476562" xlink:href="#DejaVuSans-69"/>
      </g>
     </g>
    </g>
    <g id="xtick_10">
     <g id="line2d_10">
      <g>
       <use style="stroke:#000000;stroke-width:0.8;" x="547.885714" xlink:href="#m4dfe8b2052" y="466.887273"/>
      </g>
     </g>
     <g id="text_10">
      <!-- AP -->
      <g transform="translate(541.450558 481.48571)scale(0.1 -0.1)">
       <use xlink:href="#DejaVuSans-65"/>
       <use x="68.408203" xlink:href="#DejaVuSans-80"/>
      </g>
     </g>
    </g>
    <g id="xtick_11">
     <g id="line2d_11">
      <g>
       <use style="stroke:#000000;stroke-width:0.8;" x="590.4" xlink:href="#m4dfe8b2052" y="466.887273"/>
      </g>
     </g>
     <g id="text_11">
      <!-- MG -->
      <defs>
       <path d="M 59.515625 10.40625 
L 59.515625 29.984375 
L 43.40625 29.984375 
L 43.40625 38.09375 
L 69.28125 38.09375 
L 69.28125 6.78125 
Q 63.578125 2.734375 56.6875 0.65625 
Q 49.8125 -1.421875 42 -1.421875 
Q 24.90625 -1.421875 15.25 8.5625 
Q 5.609375 18.5625 5.609375 36.375 
Q 5.609375 54.25 15.25 64.234375 
Q 24.90625 74.21875 42 74.21875 
Q 49.125 74.21875 55.546875 72.453125 
Q 61.96875 70.703125 67.390625 67.28125 
L 67.390625 56.78125 
Q 61.921875 61.421875 55.765625 63.765625 
Q 49.609375 66.109375 42.828125 66.109375 
Q 29.4375 66.109375 22.71875 58.640625 
Q 16.015625 51.171875 16.015625 36.375 
Q 16.015625 21.625 22.71875 14.15625 
Q 29.4375 6.6875 42.828125 6.6875 
Q 48.046875 6.6875 52.140625 7.59375 
Q 56.25 8.5 59.515625 10.40625 
z
" id="DejaVuSans-71"/>
      </defs>
      <g transform="translate(582.211719 481.48571)scale(0.1 -0.1)">
       <use xlink:href="#DejaVuSans-77"/>
       <use x="86.279297" xlink:href="#DejaVuSans-71"/>
      </g>
     </g>
    </g>
    <g id="xtick_12">
     <g id="line2d_12">
      <g>
       <use style="stroke:#000000;stroke-width:0.8;" x="632.914286" xlink:href="#m4dfe8b2052" y="466.887273"/>
      </g>
     </g>
     <g id="text_12">
      <!-- PB -->
      <g transform="translate(626.468973 481.48571)scale(0.1 -0.1)">
       <use xlink:href="#DejaVuSans-80"/>
       <use x="60.302734" xlink:href="#DejaVuSans-66"/>
      </g>
     </g>
    </g>
    <g id="xtick_13">
     <g id="line2d_13">
      <g>
       <use style="stroke:#000000;stroke-width:0.8;" x="675.428571" xlink:href="#m4dfe8b2052" y="466.887273"/>
      </g>
     </g>
     <g id="text_13">
      <!-- RN -->
      <defs>
       <path d="M 9.8125 72.90625 
L 23.09375 72.90625 
L 55.421875 11.921875 
L 55.421875 72.90625 
L 64.984375 72.90625 
L 64.984375 0 
L 51.703125 0 
L 19.390625 60.984375 
L 19.390625 0 
L 9.8125 0 
z
" id="DejaVuSans-78"/>
      </defs>
      <g transform="translate(668.213728 481.48571)scale(0.1 -0.1)">
       <use xlink:href="#DejaVuSans-82"/>
       <use x="69.482422" xlink:href="#DejaVuSans-78"/>
      </g>
     </g>
    </g>
    <g id="xtick_14">
     <g id="line2d_14">
      <g>
       <use style="stroke:#000000;stroke-width:0.8;" x="717.942857" xlink:href="#m4dfe8b2052" y="466.887273"/>
      </g>
     </g>
     <g id="text_14">
      <!-- RS -->
      <g transform="translate(711.29442 481.48571)scale(0.1 -0.1)">
       <use xlink:href="#DejaVuSans-82"/>
       <use x="69.482422" xlink:href="#DejaVuSans-83"/>
      </g>
     </g>
    </g>
    <g id="xtick_15">
     <g id="line2d_15">
      <g>
       <use style="stroke:#000000;stroke-width:0.8;" x="760.457143" xlink:href="#m4dfe8b2052" y="466.887273"/>
      </g>
     </g>
     <g id="text_15">
      <!-- TO -->
      <g transform="translate(753.467299 481.48571)scale(0.1 -0.1)">
       <use xlink:href="#DejaVuSans-84"/>
       <use x="61.083984" xlink:href="#DejaVuSans-79"/>
      </g>
     </g>
    </g>
    <g id="xtick_16">
     <g id="line2d_16">
      <g>
       <use style="stroke:#000000;stroke-width:0.8;" x="802.971429" xlink:href="#m4dfe8b2052" y="466.887273"/>
      </g>
     </g>
     <g id="text_16">
      <!-- MS -->
      <g transform="translate(795.483147 481.48571)scale(0.1 -0.1)">
       <use xlink:href="#DejaVuSans-77"/>
       <use x="86.279297" xlink:href="#DejaVuSans-83"/>
      </g>
     </g>
    </g>
    <g id="xtick_17">
     <g id="line2d_17">
      <g>
       <use style="stroke:#000000;stroke-width:0.8;" x="845.485714" xlink:href="#m4dfe8b2052" y="466.887273"/>
      </g>
     </g>
     <g id="text_17">
      <!-- AM -->
      <g transform="translate(837.751339 481.48571)scale(0.1 -0.1)">
       <use xlink:href="#DejaVuSans-65"/>
       <use x="68.408203" xlink:href="#DejaVuSans-77"/>
      </g>
     </g>
    </g>
    <g id="xtick_18">
     <g id="line2d_18">
      <g>
       <use style="stroke:#000000;stroke-width:0.8;" x="888" xlink:href="#m4dfe8b2052" y="466.887273"/>
      </g>
     </g>
     <g id="text_18">
      <!-- PR -->
      <g transform="translate(881.510937 481.48571)scale(0.1 -0.1)">
       <use xlink:href="#DejaVuSans-80"/>
       <use x="60.302734" xlink:href="#DejaVuSans-82"/>
      </g>
     </g>
    </g>
    <g id="xtick_19">
     <g id="line2d_19">
      <g>
       <use style="stroke:#000000;stroke-width:0.8;" x="930.514286" xlink:href="#m4dfe8b2052" y="466.887273"/>
      </g>
     </g>
     <g id="text_19">
      <!-- GO -->
      <g transform="translate(922.704129 481.48571)scale(0.1 -0.1)">
       <use xlink:href="#DejaVuSans-71"/>
       <use x="77.490234" xlink:href="#DejaVuSans-79"/>
      </g>
     </g>
    </g>
    <g id="xtick_20">
     <g id="line2d_20">
      <g>
       <use style="stroke:#000000;stroke-width:0.8;" x="973.028571" xlink:href="#m4dfe8b2052" y="466.887273"/>
      </g>
     </g>
     <g id="text_20">
      <!-- ES -->
      <g transform="translate(966.694978 481.48571)scale(0.1 -0.1)">
       <use xlink:href="#DejaVuSans-69"/>
       <use x="63.183594" xlink:href="#DejaVuSans-83"/>
      </g>
     </g>
    </g>
    <g id="xtick_21">
     <g id="line2d_21">
      <g>
       <use style="stroke:#000000;stroke-width:0.8;" x="1015.542857" xlink:href="#m4dfe8b2052" y="466.887273"/>
      </g>
     </g>
     <g id="text_21">
      <!-- AC -->
      <g transform="translate(1008.718638 481.48571)scale(0.1 -0.1)">
       <use xlink:href="#DejaVuSans-65"/>
       <use x="66.658203" xlink:href="#DejaVuSans-67"/>
      </g>
     </g>
    </g>
    <g id="text_22">
     <!-- Estado -->
     <defs>
      <path d="M 44.28125 53.078125 
L 44.28125 44.578125 
Q 40.484375 46.53125 36.375 47.5 
Q 32.28125 48.484375 27.875 48.484375 
Q 21.1875 48.484375 17.84375 46.4375 
Q 14.5 44.390625 14.5 40.28125 
Q 14.5 37.15625 16.890625 35.375 
Q 19.28125 33.59375 26.515625 31.984375 
L 29.59375 31.296875 
Q 39.15625 29.25 43.1875 25.515625 
Q 47.21875 21.78125 47.21875 15.09375 
Q 47.21875 7.46875 41.1875 3.015625 
Q 35.15625 -1.421875 24.609375 -1.421875 
Q 20.21875 -1.421875 15.453125 -0.5625 
Q 10.6875 0.296875 5.421875 2 
L 5.421875 11.28125 
Q 10.40625 8.6875 15.234375 7.390625 
Q 20.0625 6.109375 24.8125 6.109375 
Q 31.15625 6.109375 34.5625 8.28125 
Q 37.984375 10.453125 37.984375 14.40625 
Q 37.984375 18.0625 35.515625 20.015625 
Q 33.0625 21.96875 24.703125 23.78125 
L 21.578125 24.515625 
Q 13.234375 26.265625 9.515625 29.90625 
Q 5.8125 33.546875 5.8125 39.890625 
Q 5.8125 47.609375 11.28125 51.796875 
Q 16.75 56 26.8125 56 
Q 31.78125 56 36.171875 55.265625 
Q 40.578125 54.546875 44.28125 53.078125 
z
" id="DejaVuSans-115"/>
      <path d="M 18.3125 70.21875 
L 18.3125 54.6875 
L 36.8125 54.6875 
L 36.8125 47.703125 
L 18.3125 47.703125 
L 18.3125 18.015625 
Q 18.3125 11.328125 20.140625 9.421875 
Q 21.96875 7.515625 27.59375 7.515625 
L 36.8125 7.515625 
L 36.8125 0 
L 27.59375 0 
Q 17.1875 0 13.234375 3.875 
Q 9.28125 7.765625 9.28125 18.015625 
L 9.28125 47.703125 
L 2.6875 47.703125 
L 2.6875 54.6875 
L 9.28125 54.6875 
L 9.28125 70.21875 
z
" id="DejaVuSans-116"/>
      <path d="M 34.28125 27.484375 
Q 23.390625 27.484375 19.1875 25 
Q 14.984375 22.515625 14.984375 16.5 
Q 14.984375 11.71875 18.140625 8.90625 
Q 21.296875 6.109375 26.703125 6.109375 
Q 34.1875 6.109375 38.703125 11.40625 
Q 43.21875 16.703125 43.21875 25.484375 
L 43.21875 27.484375 
z
M 52.203125 31.203125 
L 52.203125 0 
L 43.21875 0 
L 43.21875 8.296875 
Q 40.140625 3.328125 35.546875 0.953125 
Q 30.953125 -1.421875 24.3125 -1.421875 
Q 15.921875 -1.421875 10.953125 3.296875 
Q 6 8.015625 6 15.921875 
Q 6 25.140625 12.171875 29.828125 
Q 18.359375 34.515625 30.609375 34.515625 
L 43.21875 34.515625 
L 43.21875 35.40625 
Q 43.21875 41.609375 39.140625 45 
Q 35.0625 48.390625 27.6875 48.390625 
Q 23 48.390625 18.546875 47.265625 
Q 14.109375 46.140625 10.015625 43.890625 
L 10.015625 52.203125 
Q 14.9375 54.109375 19.578125 55.046875 
Q 24.21875 56 28.609375 56 
Q 40.484375 56 46.34375 49.84375 
Q 52.203125 43.703125 52.203125 31.203125 
z
" id="DejaVuSans-97"/>
      <path d="M 45.40625 46.390625 
L 45.40625 75.984375 
L 54.390625 75.984375 
L 54.390625 0 
L 45.40625 0 
L 45.40625 8.203125 
Q 42.578125 3.328125 38.25 0.953125 
Q 33.9375 -1.421875 27.875 -1.421875 
Q 17.96875 -1.421875 11.734375 6.484375 
Q 5.515625 14.40625 5.515625 27.296875 
Q 5.515625 40.1875 11.734375 48.09375 
Q 17.96875 56 27.875 56 
Q 33.9375 56 38.25 53.625 
Q 42.578125 51.265625 45.40625 46.390625 
z
M 14.796875 27.296875 
Q 14.796875 17.390625 18.875 11.75 
Q 22.953125 6.109375 30.078125 6.109375 
Q 37.203125 6.109375 41.296875 11.75 
Q 45.40625 17.390625 45.40625 27.296875 
Q 45.40625 37.203125 41.296875 42.84375 
Q 37.203125 48.484375 30.078125 48.484375 
Q 22.953125 48.484375 18.875 42.84375 
Q 14.796875 37.203125 14.796875 27.296875 
z
" id="DejaVuSans-100"/>
      <path d="M 30.609375 48.390625 
Q 23.390625 48.390625 19.1875 42.75 
Q 14.984375 37.109375 14.984375 27.296875 
Q 14.984375 17.484375 19.15625 11.84375 
Q 23.34375 6.203125 30.609375 6.203125 
Q 37.796875 6.203125 41.984375 11.859375 
Q 46.1875 17.53125 46.1875 27.296875 
Q 46.1875 37.015625 41.984375 42.703125 
Q 37.796875 48.390625 30.609375 48.390625 
z
M 30.609375 56 
Q 42.328125 56 49.015625 48.375 
Q 55.71875 40.765625 55.71875 27.296875 
Q 55.71875 13.875 49.015625 6.21875 
Q 42.328125 -1.421875 30.609375 -1.421875 
Q 18.84375 -1.421875 12.171875 6.21875 
Q 5.515625 13.875 5.515625 27.296875 
Q 5.515625 40.765625 12.171875 48.375 
Q 18.84375 56 30.609375 56 
z
" id="DejaVuSans-111"/>
     </defs>
     <g transform="translate(573.378125 495.163835)scale(0.1 -0.1)">
      <use xlink:href="#DejaVuSans-69"/>
      <use x="63.183594" xlink:href="#DejaVuSans-115"/>
      <use x="115.283203" xlink:href="#DejaVuSans-116"/>
      <use x="154.492188" xlink:href="#DejaVuSans-97"/>
      <use x="215.771484" xlink:href="#DejaVuSans-100"/>
      <use x="279.248047" xlink:href="#DejaVuSans-111"/>
     </g>
    </g>
   </g>
   <g id="matplotlib.axis_2">
    <g id="ytick_1">
     <g id="line2d_22">
      <defs>
       <path d="M 0 0 
L -3.5 0 
" id="m9a2dc1a2ad" style="stroke:#000000;stroke-width:0.8;"/>
      </defs>
      <g>
       <use style="stroke:#000000;stroke-width:0.8;" x="144" xlink:href="#m9a2dc1a2ad" y="466.887273"/>
      </g>
     </g>
     <g id="text_23">
      <!-- 0 -->
      <defs>
       <path d="M 31.78125 66.40625 
Q 24.171875 66.40625 20.328125 58.90625 
Q 16.5 51.421875 16.5 36.375 
Q 16.5 21.390625 20.328125 13.890625 
Q 24.171875 6.390625 31.78125 6.390625 
Q 39.453125 6.390625 43.28125 13.890625 
Q 47.125 21.390625 47.125 36.375 
Q 47.125 51.421875 43.28125 58.90625 
Q 39.453125 66.40625 31.78125 66.40625 
z
M 31.78125 74.21875 
Q 44.046875 74.21875 50.515625 64.515625 
Q 56.984375 54.828125 56.984375 36.375 
Q 56.984375 17.96875 50.515625 8.265625 
Q 44.046875 -1.421875 31.78125 -1.421875 
Q 19.53125 -1.421875 13.0625 8.265625 
Q 6.59375 17.96875 6.59375 36.375 
Q 6.59375 54.828125 13.0625 64.515625 
Q 19.53125 74.21875 31.78125 74.21875 
z
" id="DejaVuSans-48"/>
      </defs>
      <g transform="translate(130.6375 470.686491)scale(0.1 -0.1)">
       <use xlink:href="#DejaVuSans-48"/>
      </g>
     </g>
    </g>
    <g id="ytick_2">
     <g id="line2d_23">
      <g>
       <use style="stroke:#000000;stroke-width:0.8;" x="144" xlink:href="#m9a2dc1a2ad" y="422.96"/>
      </g>
     </g>
     <g id="text_24">
      <!-- 200 -->
      <defs>
       <path d="M 19.1875 8.296875 
L 53.609375 8.296875 
L 53.609375 0 
L 7.328125 0 
L 7.328125 8.296875 
Q 12.9375 14.109375 22.625 23.890625 
Q 32.328125 33.6875 34.8125 36.53125 
Q 39.546875 41.84375 41.421875 45.53125 
Q 43.3125 49.21875 43.3125 52.78125 
Q 43.3125 58.59375 39.234375 62.25 
Q 35.15625 65.921875 28.609375 65.921875 
Q 23.96875 65.921875 18.8125 64.3125 
Q 13.671875 62.703125 7.8125 59.421875 
L 7.8125 69.390625 
Q 13.765625 71.78125 18.9375 73 
Q 24.125 74.21875 28.421875 74.21875 
Q 39.75 74.21875 46.484375 68.546875 
Q 53.21875 62.890625 53.21875 53.421875 
Q 53.21875 48.921875 51.53125 44.890625 
Q 49.859375 40.875 45.40625 35.40625 
Q 44.1875 33.984375 37.640625 27.21875 
Q 31.109375 20.453125 19.1875 8.296875 
z
" id="DejaVuSans-50"/>
      </defs>
      <g transform="translate(117.9125 426.759219)scale(0.1 -0.1)">
       <use xlink:href="#DejaVuSans-50"/>
       <use x="63.623047" xlink:href="#DejaVuSans-48"/>
       <use x="127.246094" xlink:href="#DejaVuSans-48"/>
      </g>
     </g>
    </g>
    <g id="ytick_3">
     <g id="line2d_24">
      <g>
       <use style="stroke:#000000;stroke-width:0.8;" x="144" xlink:href="#m9a2dc1a2ad" y="379.032727"/>
      </g>
     </g>
     <g id="text_25">
      <!-- 400 -->
      <defs>
       <path d="M 37.796875 64.3125 
L 12.890625 25.390625 
L 37.796875 25.390625 
z
M 35.203125 72.90625 
L 47.609375 72.90625 
L 47.609375 25.390625 
L 58.015625 25.390625 
L 58.015625 17.1875 
L 47.609375 17.1875 
L 47.609375 0 
L 37.796875 0 
L 37.796875 17.1875 
L 4.890625 17.1875 
L 4.890625 26.703125 
z
" id="DejaVuSans-52"/>
      </defs>
      <g transform="translate(117.9125 382.831946)scale(0.1 -0.1)">
       <use xlink:href="#DejaVuSans-52"/>
       <use x="63.623047" xlink:href="#DejaVuSans-48"/>
       <use x="127.246094" xlink:href="#DejaVuSans-48"/>
      </g>
     </g>
    </g>
    <g id="ytick_4">
     <g id="line2d_25">
      <g>
       <use style="stroke:#000000;stroke-width:0.8;" x="144" xlink:href="#m9a2dc1a2ad" y="335.105455"/>
      </g>
     </g>
     <g id="text_26">
      <!-- 600 -->
      <defs>
       <path d="M 33.015625 40.375 
Q 26.375 40.375 22.484375 35.828125 
Q 18.609375 31.296875 18.609375 23.390625 
Q 18.609375 15.53125 22.484375 10.953125 
Q 26.375 6.390625 33.015625 6.390625 
Q 39.65625 6.390625 43.53125 10.953125 
Q 47.40625 15.53125 47.40625 23.390625 
Q 47.40625 31.296875 43.53125 35.828125 
Q 39.65625 40.375 33.015625 40.375 
z
M 52.59375 71.296875 
L 52.59375 62.3125 
Q 48.875 64.0625 45.09375 64.984375 
Q 41.3125 65.921875 37.59375 65.921875 
Q 27.828125 65.921875 22.671875 59.328125 
Q 17.53125 52.734375 16.796875 39.40625 
Q 19.671875 43.65625 24.015625 45.921875 
Q 28.375 48.1875 33.59375 48.1875 
Q 44.578125 48.1875 50.953125 41.515625 
Q 57.328125 34.859375 57.328125 23.390625 
Q 57.328125 12.15625 50.6875 5.359375 
Q 44.046875 -1.421875 33.015625 -1.421875 
Q 20.359375 -1.421875 13.671875 8.265625 
Q 6.984375 17.96875 6.984375 36.375 
Q 6.984375 53.65625 15.1875 63.9375 
Q 23.390625 74.21875 37.203125 74.21875 
Q 40.921875 74.21875 44.703125 73.484375 
Q 48.484375 72.75 52.59375 71.296875 
z
" id="DejaVuSans-54"/>
      </defs>
      <g transform="translate(117.9125 338.904673)scale(0.1 -0.1)">
       <use xlink:href="#DejaVuSans-54"/>
       <use x="63.623047" xlink:href="#DejaVuSans-48"/>
       <use x="127.246094" xlink:href="#DejaVuSans-48"/>
      </g>
     </g>
    </g>
    <g id="ytick_5">
     <g id="line2d_26">
      <g>
       <use style="stroke:#000000;stroke-width:0.8;" x="144" xlink:href="#m9a2dc1a2ad" y="291.178182"/>
      </g>
     </g>
     <g id="text_27">
      <!-- 800 -->
      <defs>
       <path d="M 31.78125 34.625 
Q 24.75 34.625 20.71875 30.859375 
Q 16.703125 27.09375 16.703125 20.515625 
Q 16.703125 13.921875 20.71875 10.15625 
Q 24.75 6.390625 31.78125 6.390625 
Q 38.8125 6.390625 42.859375 10.171875 
Q 46.921875 13.96875 46.921875 20.515625 
Q 46.921875 27.09375 42.890625 30.859375 
Q 38.875 34.625 31.78125 34.625 
z
M 21.921875 38.8125 
Q 15.578125 40.375 12.03125 44.71875 
Q 8.5 49.078125 8.5 55.328125 
Q 8.5 64.0625 14.71875 69.140625 
Q 20.953125 74.21875 31.78125 74.21875 
Q 42.671875 74.21875 48.875 69.140625 
Q 55.078125 64.0625 55.078125 55.328125 
Q 55.078125 49.078125 51.53125 44.71875 
Q 48 40.375 41.703125 38.8125 
Q 48.828125 37.15625 52.796875 32.3125 
Q 56.78125 27.484375 56.78125 20.515625 
Q 56.78125 9.90625 50.3125 4.234375 
Q 43.84375 -1.421875 31.78125 -1.421875 
Q 19.734375 -1.421875 13.25 4.234375 
Q 6.78125 9.90625 6.78125 20.515625 
Q 6.78125 27.484375 10.78125 32.3125 
Q 14.796875 37.15625 21.921875 38.8125 
z
M 18.3125 54.390625 
Q 18.3125 48.734375 21.84375 45.5625 
Q 25.390625 42.390625 31.78125 42.390625 
Q 38.140625 42.390625 41.71875 45.5625 
Q 45.3125 48.734375 45.3125 54.390625 
Q 45.3125 60.0625 41.71875 63.234375 
Q 38.140625 66.40625 31.78125 66.40625 
Q 25.390625 66.40625 21.84375 63.234375 
Q 18.3125 60.0625 18.3125 54.390625 
z
" id="DejaVuSans-56"/>
      </defs>
      <g transform="translate(117.9125 294.977401)scale(0.1 -0.1)">
       <use xlink:href="#DejaVuSans-56"/>
       <use x="63.623047" xlink:href="#DejaVuSans-48"/>
       <use x="127.246094" xlink:href="#DejaVuSans-48"/>
      </g>
     </g>
    </g>
    <g id="ytick_6">
     <g id="line2d_27">
      <g>
       <use style="stroke:#000000;stroke-width:0.8;" x="144" xlink:href="#m9a2dc1a2ad" y="247.250909"/>
      </g>
     </g>
     <g id="text_28">
      <!-- 1000 -->
      <defs>
       <path d="M 12.40625 8.296875 
L 28.515625 8.296875 
L 28.515625 63.921875 
L 10.984375 60.40625 
L 10.984375 69.390625 
L 28.421875 72.90625 
L 38.28125 72.90625 
L 38.28125 8.296875 
L 54.390625 8.296875 
L 54.390625 0 
L 12.40625 0 
z
" id="DejaVuSans-49"/>
      </defs>
      <g transform="translate(111.55 251.050128)scale(0.1 -0.1)">
       <use xlink:href="#DejaVuSans-49"/>
       <use x="63.623047" xlink:href="#DejaVuSans-48"/>
       <use x="127.246094" xlink:href="#DejaVuSans-48"/>
       <use x="190.869141" xlink:href="#DejaVuSans-48"/>
      </g>
     </g>
    </g>
    <g id="ytick_7">
     <g id="line2d_28">
      <g>
       <use style="stroke:#000000;stroke-width:0.8;" x="144" xlink:href="#m9a2dc1a2ad" y="203.323636"/>
      </g>
     </g>
     <g id="text_29">
      <!-- 1200 -->
      <g transform="translate(111.55 207.122855)scale(0.1 -0.1)">
       <use xlink:href="#DejaVuSans-49"/>
       <use x="63.623047" xlink:href="#DejaVuSans-50"/>
       <use x="127.246094" xlink:href="#DejaVuSans-48"/>
       <use x="190.869141" xlink:href="#DejaVuSans-48"/>
      </g>
     </g>
    </g>
    <g id="ytick_8">
     <g id="line2d_29">
      <g>
       <use style="stroke:#000000;stroke-width:0.8;" x="144" xlink:href="#m9a2dc1a2ad" y="159.396364"/>
      </g>
     </g>
     <g id="text_30">
      <!-- 1400 -->
      <g transform="translate(111.55 163.195582)scale(0.1 -0.1)">
       <use xlink:href="#DejaVuSans-49"/>
       <use x="63.623047" xlink:href="#DejaVuSans-52"/>
       <use x="127.246094" xlink:href="#DejaVuSans-48"/>
       <use x="190.869141" xlink:href="#DejaVuSans-48"/>
      </g>
     </g>
    </g>
    <g id="text_31">
     <!-- %Var -->
     <defs>
      <path d="M 72.703125 32.078125 
Q 68.453125 32.078125 66.03125 28.46875 
Q 63.625 24.859375 63.625 18.40625 
Q 63.625 12.0625 66.03125 8.421875 
Q 68.453125 4.78125 72.703125 4.78125 
Q 76.859375 4.78125 79.265625 8.421875 
Q 81.6875 12.0625 81.6875 18.40625 
Q 81.6875 24.8125 79.265625 28.4375 
Q 76.859375 32.078125 72.703125 32.078125 
z
M 72.703125 38.28125 
Q 80.421875 38.28125 84.953125 32.90625 
Q 89.5 27.546875 89.5 18.40625 
Q 89.5 9.28125 84.9375 3.921875 
Q 80.375 -1.421875 72.703125 -1.421875 
Q 64.890625 -1.421875 60.34375 3.921875 
Q 55.8125 9.28125 55.8125 18.40625 
Q 55.8125 27.59375 60.375 32.9375 
Q 64.9375 38.28125 72.703125 38.28125 
z
M 22.3125 68.015625 
Q 18.109375 68.015625 15.6875 64.375 
Q 13.28125 60.75 13.28125 54.390625 
Q 13.28125 47.953125 15.671875 44.328125 
Q 18.0625 40.71875 22.3125 40.71875 
Q 26.5625 40.71875 28.96875 44.328125 
Q 31.390625 47.953125 31.390625 54.390625 
Q 31.390625 60.6875 28.953125 64.34375 
Q 26.515625 68.015625 22.3125 68.015625 
z
M 66.40625 74.21875 
L 74.21875 74.21875 
L 28.609375 -1.421875 
L 20.796875 -1.421875 
z
M 22.3125 74.21875 
Q 30.03125 74.21875 34.609375 68.875 
Q 39.203125 63.53125 39.203125 54.390625 
Q 39.203125 45.171875 34.640625 39.84375 
Q 30.078125 34.515625 22.3125 34.515625 
Q 14.546875 34.515625 10.03125 39.859375 
Q 5.515625 45.21875 5.515625 54.390625 
Q 5.515625 63.484375 10.046875 68.84375 
Q 14.59375 74.21875 22.3125 74.21875 
z
" id="DejaVuSans-37"/>
      <path d="M 28.609375 0 
L 0.78125 72.90625 
L 11.078125 72.90625 
L 34.1875 11.53125 
L 57.328125 72.90625 
L 67.578125 72.90625 
L 39.796875 0 
z
" id="DejaVuSans-86"/>
      <path d="M 41.109375 46.296875 
Q 39.59375 47.171875 37.8125 47.578125 
Q 36.03125 48 33.890625 48 
Q 26.265625 48 22.1875 43.046875 
Q 18.109375 38.09375 18.109375 28.8125 
L 18.109375 0 
L 9.078125 0 
L 9.078125 54.6875 
L 18.109375 54.6875 
L 18.109375 46.1875 
Q 20.953125 51.171875 25.484375 53.578125 
Q 30.03125 56 36.53125 56 
Q 37.453125 56 38.578125 55.875 
Q 39.703125 55.765625 41.0625 55.515625 
z
" id="DejaVuSans-114"/>
     </defs>
     <g transform="translate(105.470312 306.826761)rotate(-90)scale(0.1 -0.1)">
      <use xlink:href="#DejaVuSans-37"/>
      <use x="95.019531" xlink:href="#DejaVuSans-86"/>
      <use x="155.677734" xlink:href="#DejaVuSans-97"/>
      <use x="216.957031" xlink:href="#DejaVuSans-114"/>
     </g>
    </g>
   </g>
   <g id="line2d_30">
    <path clip-path="url(#p946f3f72b7)" d="M 0 0 
" style="fill:none;stroke:#424242;stroke-linecap:square;stroke-width:2.7;"/>
   </g>
   <g id="line2d_31">
    <path clip-path="url(#p946f3f72b7)" style="fill:none;stroke:#424242;stroke-linecap:square;stroke-width:2.7;"/>
   </g>
   <g id="line2d_32">
    <path clip-path="url(#p946f3f72b7)" style="fill:none;stroke:#424242;stroke-linecap:square;stroke-width:2.7;"/>
   </g>
   <g id="line2d_33">
    <path clip-path="url(#p946f3f72b7)" style="fill:none;stroke:#424242;stroke-linecap:square;stroke-width:2.7;"/>
   </g>
   <g id="line2d_34">
    <path clip-path="url(#p946f3f72b7)" style="fill:none;stroke:#424242;stroke-linecap:square;stroke-width:2.7;"/>
   </g>
   <g id="line2d_35">
    <path clip-path="url(#p946f3f72b7)" style="fill:none;stroke:#424242;stroke-linecap:square;stroke-width:2.7;"/>
   </g>
   <g id="line2d_36">
    <path clip-path="url(#p946f3f72b7)" style="fill:none;stroke:#424242;stroke-linecap:square;stroke-width:2.7;"/>
   </g>
   <g id="line2d_37">
    <path clip-path="url(#p946f3f72b7)" style="fill:none;stroke:#424242;stroke-linecap:square;stroke-width:2.7;"/>
   </g>
   <g id="line2d_38">
    <path clip-path="url(#p946f3f72b7)" style="fill:none;stroke:#424242;stroke-linecap:square;stroke-width:2.7;"/>
   </g>
   <g id="line2d_39">
    <path clip-path="url(#p946f3f72b7)" style="fill:none;stroke:#424242;stroke-linecap:square;stroke-width:2.7;"/>
   </g>
   <g id="line2d_40">
    <path clip-path="url(#p946f3f72b7)" style="fill:none;stroke:#424242;stroke-linecap:square;stroke-width:2.7;"/>
   </g>
   <g id="line2d_41">
    <path clip-path="url(#p946f3f72b7)" style="fill:none;stroke:#424242;stroke-linecap:square;stroke-width:2.7;"/>
   </g>
   <g id="line2d_42">
    <path clip-path="url(#p946f3f72b7)" style="fill:none;stroke:#424242;stroke-linecap:square;stroke-width:2.7;"/>
   </g>
   <g id="line2d_43">
    <path clip-path="url(#p946f3f72b7)" style="fill:none;stroke:#424242;stroke-linecap:square;stroke-width:2.7;"/>
   </g>
   <g id="line2d_44">
    <path clip-path="url(#p946f3f72b7)" style="fill:none;stroke:#424242;stroke-linecap:square;stroke-width:2.7;"/>
   </g>
   <g id="line2d_45">
    <path clip-path="url(#p946f3f72b7)" style="fill:none;stroke:#424242;stroke-linecap:square;stroke-width:2.7;"/>
   </g>
   <g id="line2d_46">
    <path clip-path="url(#p946f3f72b7)" style="fill:none;stroke:#424242;stroke-linecap:square;stroke-width:2.7;"/>
   </g>
   <g id="line2d_47">
    <path clip-path="url(#p946f3f72b7)" style="fill:none;stroke:#424242;stroke-linecap:square;stroke-width:2.7;"/>
   </g>
   <g id="line2d_48">
    <path clip-path="url(#p946f3f72b7)" style="fill:none;stroke:#424242;stroke-linecap:square;stroke-width:2.7;"/>
   </g>
   <g id="line2d_49">
    <path clip-path="url(#p946f3f72b7)" style="fill:none;stroke:#424242;stroke-linecap:square;stroke-width:2.7;"/>
   </g>
   <g id="line2d_50">
    <path clip-path="url(#p946f3f72b7)" style="fill:none;stroke:#424242;stroke-linecap:square;stroke-width:2.7;"/>
   </g>
   <g id="line2d_51">
    <path clip-path="url(#p946f3f72b7)" style="fill:none;stroke:#424242;stroke-linecap:square;stroke-width:2.7;"/>
   </g>
   <g id="line2d_52">
    <path clip-path="url(#p946f3f72b7)" style="fill:none;stroke:#424242;stroke-linecap:square;stroke-width:2.7;"/>
   </g>
   <g id="line2d_53">
    <path clip-path="url(#p946f3f72b7)" style="fill:none;stroke:#424242;stroke-linecap:square;stroke-width:2.7;"/>
   </g>
   <g id="line2d_54">
    <path clip-path="url(#p946f3f72b7)" style="fill:none;stroke:#424242;stroke-linecap:square;stroke-width:2.7;"/>
   </g>
   <g id="line2d_55">
    <path clip-path="url(#p946f3f72b7)" style="fill:none;stroke:#424242;stroke-linecap:square;stroke-width:2.7;"/>
   </g>
   <g id="line2d_56">
    <path clip-path="url(#p946f3f72b7)" style="fill:none;stroke:#424242;stroke-linecap:square;stroke-width:2.7;"/>
   </g>
   <g id="line2d_57">
    <path clip-path="url(#p946f3f72b7)" style="fill:none;stroke:#424242;stroke-linecap:square;stroke-width:2.7;"/>
   </g>
   <g id="line2d_58">
    <path clip-path="url(#p946f3f72b7)" style="fill:none;stroke:#424242;stroke-linecap:square;stroke-width:2.7;"/>
   </g>
   <g id="line2d_59">
    <path clip-path="url(#p946f3f72b7)" style="fill:none;stroke:#424242;stroke-linecap:square;stroke-width:2.7;"/>
   </g>
   <g id="line2d_60">
    <path clip-path="url(#p946f3f72b7)" style="fill:none;stroke:#424242;stroke-linecap:square;stroke-width:2.7;"/>
   </g>
   <g id="line2d_61">
    <path clip-path="url(#p946f3f72b7)" style="fill:none;stroke:#424242;stroke-linecap:square;stroke-width:2.7;"/>
   </g>
   <g id="line2d_62">
    <path clip-path="url(#p946f3f72b7)" style="fill:none;stroke:#424242;stroke-linecap:square;stroke-width:2.7;"/>
   </g>
   <g id="line2d_63">
    <path clip-path="url(#p946f3f72b7)" style="fill:none;stroke:#424242;stroke-linecap:square;stroke-width:2.7;"/>
   </g>
   <g id="line2d_64">
    <path clip-path="url(#p946f3f72b7)" style="fill:none;stroke:#424242;stroke-linecap:square;stroke-width:2.7;"/>
   </g>
   <g id="line2d_65">
    <path clip-path="url(#p946f3f72b7)" style="fill:none;stroke:#424242;stroke-linecap:square;stroke-width:2.7;"/>
   </g>
   <g id="line2d_66">
    <path clip-path="url(#p946f3f72b7)" style="fill:none;stroke:#424242;stroke-linecap:square;stroke-width:2.7;"/>
   </g>
   <g id="line2d_67">
    <path clip-path="url(#p946f3f72b7)" style="fill:none;stroke:#424242;stroke-linecap:square;stroke-width:2.7;"/>
   </g>
   <g id="line2d_68">
    <path clip-path="url(#p946f3f72b7)" style="fill:none;stroke:#424242;stroke-linecap:square;stroke-width:2.7;"/>
   </g>
   <g id="line2d_69">
    <path clip-path="url(#p946f3f72b7)" style="fill:none;stroke:#424242;stroke-linecap:square;stroke-width:2.7;"/>
   </g>
   <g id="line2d_70">
    <path clip-path="url(#p946f3f72b7)" style="fill:none;stroke:#424242;stroke-linecap:square;stroke-width:2.7;"/>
   </g>
   <g id="line2d_71">
    <path clip-path="url(#p946f3f72b7)" style="fill:none;stroke:#424242;stroke-linecap:square;stroke-width:2.7;"/>
   </g>
   <g id="line2d_72">
    <path clip-path="url(#p946f3f72b7)" style="fill:none;stroke:#424242;stroke-linecap:square;stroke-width:2.7;"/>
   </g>
   <g id="line2d_73">
    <path clip-path="url(#p946f3f72b7)" style="fill:none;stroke:#424242;stroke-linecap:square;stroke-width:2.7;"/>
   </g>
   <g id="line2d_74">
    <path clip-path="url(#p946f3f72b7)" style="fill:none;stroke:#424242;stroke-linecap:square;stroke-width:2.7;"/>
   </g>
   <g id="line2d_75">
    <path clip-path="url(#p946f3f72b7)" style="fill:none;stroke:#424242;stroke-linecap:square;stroke-width:2.7;"/>
   </g>
   <g id="line2d_76">
    <path clip-path="url(#p946f3f72b7)" style="fill:none;stroke:#424242;stroke-linecap:square;stroke-width:2.7;"/>
   </g>
   <g id="line2d_77">
    <path clip-path="url(#p946f3f72b7)" style="fill:none;stroke:#424242;stroke-linecap:square;stroke-width:2.7;"/>
   </g>
   <g id="line2d_78">
    <path clip-path="url(#p946f3f72b7)" style="fill:none;stroke:#424242;stroke-linecap:square;stroke-width:2.7;"/>
   </g>
   <g id="line2d_79">
    <path clip-path="url(#p946f3f72b7)" style="fill:none;stroke:#424242;stroke-linecap:square;stroke-width:2.7;"/>
   </g>
   <g id="line2d_80">
    <path clip-path="url(#p946f3f72b7)" style="fill:none;stroke:#424242;stroke-linecap:square;stroke-width:2.7;"/>
   </g>
   <g id="line2d_81">
    <path clip-path="url(#p946f3f72b7)" style="fill:none;stroke:#424242;stroke-linecap:square;stroke-width:2.7;"/>
   </g>
   <g id="line2d_82">
    <path clip-path="url(#p946f3f72b7)" style="fill:none;stroke:#424242;stroke-linecap:square;stroke-width:2.7;"/>
   </g>
   <g id="line2d_83">
    <path clip-path="url(#p946f3f72b7)" style="fill:none;stroke:#424242;stroke-linecap:square;stroke-width:2.7;"/>
   </g>
   <g id="line2d_84">
    <path clip-path="url(#p946f3f72b7)" style="fill:none;stroke:#424242;stroke-linecap:square;stroke-width:2.7;"/>
   </g>
   <g id="line2d_85">
    <path clip-path="url(#p946f3f72b7)" style="fill:none;stroke:#424242;stroke-linecap:square;stroke-width:2.7;"/>
   </g>
   <g id="line2d_86">
    <path clip-path="url(#p946f3f72b7)" style="fill:none;stroke:#424242;stroke-linecap:square;stroke-width:2.7;"/>
   </g>
   <g id="line2d_87">
    <path clip-path="url(#p946f3f72b7)" style="fill:none;stroke:#424242;stroke-linecap:square;stroke-width:2.7;"/>
   </g>
   <g id="line2d_88">
    <path clip-path="url(#p946f3f72b7)" style="fill:none;stroke:#424242;stroke-linecap:square;stroke-width:2.7;"/>
   </g>
   <g id="line2d_89">
    <path clip-path="url(#p946f3f72b7)" style="fill:none;stroke:#424242;stroke-linecap:square;stroke-width:2.7;"/>
   </g>
   <g id="line2d_90">
    <path clip-path="url(#p946f3f72b7)" style="fill:none;stroke:#424242;stroke-linecap:square;stroke-width:2.7;"/>
   </g>
   <g id="line2d_91">
    <path clip-path="url(#p946f3f72b7)" style="fill:none;stroke:#424242;stroke-linecap:square;stroke-width:2.7;"/>
   </g>
   <g id="line2d_92">
    <path clip-path="url(#p946f3f72b7)" style="fill:none;stroke:#424242;stroke-linecap:square;stroke-width:2.7;"/>
   </g>
   <g id="line2d_93">
    <path clip-path="url(#p946f3f72b7)" style="fill:none;stroke:#424242;stroke-linecap:square;stroke-width:2.7;"/>
   </g>
   <g id="line2d_94">
    <path clip-path="url(#p946f3f72b7)" style="fill:none;stroke:#424242;stroke-linecap:square;stroke-width:2.7;"/>
   </g>
   <g id="line2d_95">
    <path clip-path="url(#p946f3f72b7)" style="fill:none;stroke:#424242;stroke-linecap:square;stroke-width:2.7;"/>
   </g>
   <g id="line2d_96">
    <path clip-path="url(#p946f3f72b7)" style="fill:none;stroke:#424242;stroke-linecap:square;stroke-width:2.7;"/>
   </g>
   <g id="line2d_97">
    <path clip-path="url(#p946f3f72b7)" style="fill:none;stroke:#424242;stroke-linecap:square;stroke-width:2.7;"/>
   </g>
   <g id="line2d_98">
    <path clip-path="url(#p946f3f72b7)" style="fill:none;stroke:#424242;stroke-linecap:square;stroke-width:2.7;"/>
   </g>
   <g id="line2d_99">
    <path clip-path="url(#p946f3f72b7)" style="fill:none;stroke:#424242;stroke-linecap:square;stroke-width:2.7;"/>
   </g>
   <g id="line2d_100">
    <path clip-path="url(#p946f3f72b7)" style="fill:none;stroke:#424242;stroke-linecap:square;stroke-width:2.7;"/>
   </g>
   <g id="line2d_101">
    <path clip-path="url(#p946f3f72b7)" style="fill:none;stroke:#424242;stroke-linecap:square;stroke-width:2.7;"/>
   </g>
   <g id="line2d_102">
    <path clip-path="url(#p946f3f72b7)" style="fill:none;stroke:#424242;stroke-linecap:square;stroke-width:2.7;"/>
   </g>
   <g id="line2d_103">
    <path clip-path="url(#p946f3f72b7)" style="fill:none;stroke:#424242;stroke-linecap:square;stroke-width:2.7;"/>
   </g>
   <g id="line2d_104">
    <path clip-path="url(#p946f3f72b7)" style="fill:none;stroke:#424242;stroke-linecap:square;stroke-width:2.7;"/>
   </g>
   <g id="line2d_105">
    <path clip-path="url(#p946f3f72b7)" style="fill:none;stroke:#424242;stroke-linecap:square;stroke-width:2.7;"/>
   </g>
   <g id="line2d_106">
    <path clip-path="url(#p946f3f72b7)" style="fill:none;stroke:#424242;stroke-linecap:square;stroke-width:2.7;"/>
   </g>
   <g id="line2d_107">
    <path clip-path="url(#p946f3f72b7)" style="fill:none;stroke:#424242;stroke-linecap:square;stroke-width:2.7;"/>
   </g>
   <g id="line2d_108">
    <path clip-path="url(#p946f3f72b7)" style="fill:none;stroke:#424242;stroke-linecap:square;stroke-width:2.7;"/>
   </g>
   <g id="line2d_109">
    <path clip-path="url(#p946f3f72b7)" style="fill:none;stroke:#424242;stroke-linecap:square;stroke-width:2.7;"/>
   </g>
   <g id="line2d_110">
    <path clip-path="url(#p946f3f72b7)" style="fill:none;stroke:#424242;stroke-linecap:square;stroke-width:2.7;"/>
   </g>
   <g id="line2d_111">
    <path clip-path="url(#p946f3f72b7)" style="fill:none;stroke:#424242;stroke-linecap:square;stroke-width:2.7;"/>
   </g>
   <g id="line2d_112">
    <path clip-path="url(#p946f3f72b7)" style="fill:none;stroke:#424242;stroke-linecap:square;stroke-width:2.7;"/>
   </g>
   <g id="line2d_113">
    <path clip-path="url(#p946f3f72b7)" style="fill:none;stroke:#424242;stroke-linecap:square;stroke-width:2.7;"/>
   </g>
   <g id="patch_87">
    <path d="M 144 466.887273 
L 144 120.96 
" style="fill:none;stroke:#000000;stroke-linecap:square;stroke-linejoin:miter;stroke-width:0.8;"/>
   </g>
   <g id="patch_88">
    <path d="M 1036.8 466.887273 
L 1036.8 120.96 
" style="fill:none;stroke:#000000;stroke-linecap:square;stroke-linejoin:miter;stroke-width:0.8;"/>
   </g>
   <g id="patch_89">
    <path d="M 144 466.887273 
L 1036.8 466.887273 
" style="fill:none;stroke:#000000;stroke-linecap:square;stroke-linejoin:miter;stroke-width:0.8;"/>
   </g>
   <g id="patch_90">
    <path d="M 144 120.96 
L 1036.8 120.96 
" style="fill:none;stroke:#000000;stroke-linecap:square;stroke-linejoin:miter;stroke-width:0.8;"/>
   </g>
   <g id="legend_1">
    <g id="patch_91">
     <path d="M 450.6 90.669347 
L 470.6 90.669347 
L 470.6 83.669347 
L 450.6 83.669347 
z
" style="fill:#176d9c;"/>
    </g>
    <g id="text_32">
     <!-- KPI_1 -->
     <defs>
      <path d="M 9.8125 72.90625 
L 19.671875 72.90625 
L 19.671875 42.09375 
L 52.390625 72.90625 
L 65.09375 72.90625 
L 28.90625 38.921875 
L 67.671875 0 
L 54.6875 0 
L 19.671875 35.109375 
L 19.671875 0 
L 9.8125 0 
z
" id="DejaVuSans-75"/>
      <path d="M 9.8125 72.90625 
L 19.671875 72.90625 
L 19.671875 0 
L 9.8125 0 
z
" id="DejaVuSans-73"/>
      <path d="M 50.984375 -16.609375 
L 50.984375 -23.578125 
L -0.984375 -23.578125 
L -0.984375 -16.609375 
z
" id="DejaVuSans-95"/>
     </defs>
     <g transform="translate(478.6 90.669347)scale(0.1 -0.1)">
      <use xlink:href="#DejaVuSans-75"/>
      <use x="65.576172" xlink:href="#DejaVuSans-80"/>
      <use x="125.878906" xlink:href="#DejaVuSans-73"/>
      <use x="155.371094" xlink:href="#DejaVuSans-95"/>
      <use x="205.371094" xlink:href="#DejaVuSans-49"/>
     </g>
    </g>
    <g id="patch_92">
     <path d="M 525.5 90.669347 
L 545.5 90.669347 
L 545.5 83.669347 
L 525.5 83.669347 
z
" style="fill:#c38820;"/>
    </g>
    <g id="text_33">
     <!-- KPI_2 -->
     <g transform="translate(553.5 90.669347)scale(0.1 -0.1)">
      <use xlink:href="#DejaVuSans-75"/>
      <use x="65.576172" xlink:href="#DejaVuSans-80"/>
      <use x="125.878906" xlink:href="#DejaVuSans-73"/>
      <use x="155.371094" xlink:href="#DejaVuSans-95"/>
      <use x="205.371094" xlink:href="#DejaVuSans-50"/>
     </g>
    </g>
    <g id="patch_93">
     <path d="M 600.4 90.669347 
L 620.4 90.669347 
L 620.4 83.669347 
L 600.4 83.669347 
z
" style="fill:#158b6a;"/>
    </g>
    <g id="text_34">
     <!-- KPI_3 -->
     <defs>
      <path d="M 40.578125 39.3125 
Q 47.65625 37.796875 51.625 33 
Q 55.609375 28.21875 55.609375 21.1875 
Q 55.609375 10.40625 48.1875 4.484375 
Q 40.765625 -1.421875 27.09375 -1.421875 
Q 22.515625 -1.421875 17.65625 -0.515625 
Q 12.796875 0.390625 7.625 2.203125 
L 7.625 11.71875 
Q 11.71875 9.328125 16.59375 8.109375 
Q 21.484375 6.890625 26.8125 6.890625 
Q 36.078125 6.890625 40.9375 10.546875 
Q 45.796875 14.203125 45.796875 21.1875 
Q 45.796875 27.640625 41.28125 31.265625 
Q 36.765625 34.90625 28.71875 34.90625 
L 20.21875 34.90625 
L 20.21875 43.015625 
L 29.109375 43.015625 
Q 36.375 43.015625 40.234375 45.921875 
Q 44.09375 48.828125 44.09375 54.296875 
Q 44.09375 59.90625 40.109375 62.90625 
Q 36.140625 65.921875 28.71875 65.921875 
Q 24.65625 65.921875 20.015625 65.03125 
Q 15.375 64.15625 9.8125 62.3125 
L 9.8125 71.09375 
Q 15.4375 72.65625 20.34375 73.4375 
Q 25.25 74.21875 29.59375 74.21875 
Q 40.828125 74.21875 47.359375 69.109375 
Q 53.90625 64.015625 53.90625 55.328125 
Q 53.90625 49.265625 50.4375 45.09375 
Q 46.96875 40.921875 40.578125 39.3125 
z
" id="DejaVuSans-51"/>
     </defs>
     <g transform="translate(628.4 90.669347)scale(0.1 -0.1)">
      <use xlink:href="#DejaVuSans-75"/>
      <use x="65.576172" xlink:href="#DejaVuSans-80"/>
      <use x="125.878906" xlink:href="#DejaVuSans-73"/>
      <use x="155.371094" xlink:href="#DejaVuSans-95"/>
      <use x="205.371094" xlink:href="#DejaVuSans-51"/>
     </g>
    </g>
    <g id="patch_94">
     <path d="M 675.3 90.669347 
L 695.3 90.669347 
L 695.3 83.669347 
L 675.3 83.669347 
z
" style="fill:#ba611b;"/>
    </g>
    <g id="text_35">
     <!-- KPI_4 -->
     <g transform="translate(703.3 90.669347)scale(0.1 -0.1)">
      <use xlink:href="#DejaVuSans-75"/>
      <use x="65.576172" xlink:href="#DejaVuSans-80"/>
      <use x="125.878906" xlink:href="#DejaVuSans-73"/>
      <use x="155.371094" xlink:href="#DejaVuSans-95"/>
      <use x="205.371094" xlink:href="#DejaVuSans-52"/>
     </g>
    </g>
   </g>
  </g>
  <g id="axes_2">
   <g id="patch_95">
    <path d="M 144 882 
L 1036.8 882 
L 1036.8 536.072727 
L 144 536.072727 
z
" style="fill:#ffffff;"/>
   </g>
   <g id="patch_96">
    <path clip-path="url(#pb0467be2ea)" d="M 166.32 863.222836 
L 344.88 863.222836 
L 344.88 841.850453 
L 166.32 841.850453 
L 166.32 863.222836 
z
" style="fill:#176d9c;stroke:#303030;stroke-linejoin:miter;stroke-width:1.5;"/>
   </g>
   <g id="patch_97">
    <path clip-path="url(#pb0467be2ea)" d="M 389.52 863.222836 
L 568.08 863.222836 
L 568.08 844.903651 
L 389.52 844.903651 
L 389.52 863.222836 
z
" style="fill:#c38820;stroke:#303030;stroke-linejoin:miter;stroke-width:1.5;"/>
   </g>
   <g id="patch_98">
    <path clip-path="url(#pb0467be2ea)" d="M 612.72 863.222836 
L 791.28 863.222836 
L 791.28 842.613753 
L 612.72 842.613753 
L 612.72 863.222836 
z
" style="fill:#158b6a;stroke:#303030;stroke-linejoin:miter;stroke-width:1.5;"/>
   </g>
   <g id="patch_99">
    <path clip-path="url(#pb0467be2ea)" d="M 835.92 847.956848 
L 1014.48 847.956848 
L 1014.48 783.839702 
L 835.92 783.839702 
L 835.92 847.956848 
z
" style="fill:#ba611b;stroke:#303030;stroke-linejoin:miter;stroke-width:1.5;"/>
   </g>
   <g id="matplotlib.axis_3">
    <g id="xtick_22">
     <g id="line2d_114">
      <g>
       <use style="stroke:#000000;stroke-width:0.8;" x="255.6" xlink:href="#m4dfe8b2052" y="882"/>
      </g>
     </g>
     <g id="text_36">
      <!-- 2020 -->
      <g transform="translate(242.875 896.598437)scale(0.1 -0.1)">
       <use xlink:href="#DejaVuSans-50"/>
       <use x="63.623047" xlink:href="#DejaVuSans-48"/>
       <use x="127.246094" xlink:href="#DejaVuSans-50"/>
       <use x="190.869141" xlink:href="#DejaVuSans-48"/>
      </g>
     </g>
    </g>
    <g id="xtick_23">
     <g id="line2d_115">
      <g>
       <use style="stroke:#000000;stroke-width:0.8;" x="478.8" xlink:href="#m4dfe8b2052" y="882"/>
      </g>
     </g>
     <g id="text_37">
      <!-- 2021 -->
      <g transform="translate(466.075 896.598437)scale(0.1 -0.1)">
       <use xlink:href="#DejaVuSans-50"/>
       <use x="63.623047" xlink:href="#DejaVuSans-48"/>
       <use x="127.246094" xlink:href="#DejaVuSans-50"/>
       <use x="190.869141" xlink:href="#DejaVuSans-49"/>
      </g>
     </g>
    </g>
    <g id="xtick_24">
     <g id="line2d_116">
      <g>
       <use style="stroke:#000000;stroke-width:0.8;" x="702" xlink:href="#m4dfe8b2052" y="882"/>
      </g>
     </g>
     <g id="text_38">
      <!-- 2022 -->
      <g transform="translate(689.275 896.598437)scale(0.1 -0.1)">
       <use xlink:href="#DejaVuSans-50"/>
       <use x="63.623047" xlink:href="#DejaVuSans-48"/>
       <use x="127.246094" xlink:href="#DejaVuSans-50"/>
       <use x="190.869141" xlink:href="#DejaVuSans-50"/>
      </g>
     </g>
    </g>
    <g id="xtick_25">
     <g id="line2d_117">
      <g>
       <use style="stroke:#000000;stroke-width:0.8;" x="925.2" xlink:href="#m4dfe8b2052" y="882"/>
      </g>
     </g>
     <g id="text_39">
      <!-- 2023 -->
      <g transform="translate(912.475 896.598437)scale(0.1 -0.1)">
       <use xlink:href="#DejaVuSans-50"/>
       <use x="63.623047" xlink:href="#DejaVuSans-48"/>
       <use x="127.246094" xlink:href="#DejaVuSans-50"/>
       <use x="190.869141" xlink:href="#DejaVuSans-51"/>
      </g>
     </g>
    </g>
   </g>
   <g id="matplotlib.axis_4">
    <g id="ytick_9">
     <g id="line2d_118">
      <g>
       <use style="stroke:#000000;stroke-width:0.8;" x="144" xlink:href="#m9a2dc1a2ad" y="866.276033"/>
      </g>
     </g>
     <g id="text_40">
      <!-- 0 -->
      <g transform="translate(130.6375 870.075252)scale(0.1 -0.1)">
       <use xlink:href="#DejaVuSans-48"/>
      </g>
     </g>
    </g>
    <g id="ytick_10">
     <g id="line2d_119">
      <g>
       <use style="stroke:#000000;stroke-width:0.8;" x="144" xlink:href="#m9a2dc1a2ad" y="805.212084"/>
      </g>
     </g>
     <g id="text_41">
      <!-- 20 -->
      <g transform="translate(124.275 809.011303)scale(0.1 -0.1)">
       <use xlink:href="#DejaVuSans-50"/>
       <use x="63.623047" xlink:href="#DejaVuSans-48"/>
      </g>
     </g>
    </g>
    <g id="ytick_11">
     <g id="line2d_120">
      <g>
       <use style="stroke:#000000;stroke-width:0.8;" x="144" xlink:href="#m9a2dc1a2ad" y="744.148134"/>
      </g>
     </g>
     <g id="text_42">
      <!-- 40 -->
      <g transform="translate(124.275 747.947353)scale(0.1 -0.1)">
       <use xlink:href="#DejaVuSans-52"/>
       <use x="63.623047" xlink:href="#DejaVuSans-48"/>
      </g>
     </g>
    </g>
    <g id="ytick_12">
     <g id="line2d_121">
      <g>
       <use style="stroke:#000000;stroke-width:0.8;" x="144" xlink:href="#m9a2dc1a2ad" y="683.084185"/>
      </g>
     </g>
     <g id="text_43">
      <!-- 60 -->
      <g transform="translate(124.275 686.883404)scale(0.1 -0.1)">
       <use xlink:href="#DejaVuSans-54"/>
       <use x="63.623047" xlink:href="#DejaVuSans-48"/>
      </g>
     </g>
    </g>
    <g id="ytick_13">
     <g id="line2d_122">
      <g>
       <use style="stroke:#000000;stroke-width:0.8;" x="144" xlink:href="#m9a2dc1a2ad" y="622.020236"/>
      </g>
     </g>
     <g id="text_44">
      <!-- 80 -->
      <g transform="translate(124.275 625.819455)scale(0.1 -0.1)">
       <use xlink:href="#DejaVuSans-56"/>
       <use x="63.623047" xlink:href="#DejaVuSans-48"/>
      </g>
     </g>
    </g>
    <g id="ytick_14">
     <g id="line2d_123">
      <g>
       <use style="stroke:#000000;stroke-width:0.8;" x="144" xlink:href="#m9a2dc1a2ad" y="560.956287"/>
      </g>
     </g>
     <g id="text_45">
      <!-- 100 -->
      <g transform="translate(117.9125 564.755505)scale(0.1 -0.1)">
       <use xlink:href="#DejaVuSans-49"/>
       <use x="63.623047" xlink:href="#DejaVuSans-48"/>
       <use x="127.246094" xlink:href="#DejaVuSans-48"/>
      </g>
     </g>
    </g>
   </g>
   <g id="line2d_124">
    <path clip-path="url(#pb0467be2ea)" d="M 255.6 863.222836 
L 255.6 866.276033 
" style="fill:none;stroke:#303030;stroke-linecap:square;stroke-width:1.5;"/>
   </g>
   <g id="line2d_125">
    <path clip-path="url(#pb0467be2ea)" d="M 255.6 841.850453 
L 255.6 814.371676 
" style="fill:none;stroke:#303030;stroke-linecap:square;stroke-width:1.5;"/>
   </g>
   <g id="line2d_126">
    <path clip-path="url(#pb0467be2ea)" d="M 210.96 866.276033 
L 300.24 866.276033 
" style="fill:none;stroke:#303030;stroke-linecap:square;stroke-width:1.5;"/>
   </g>
   <g id="line2d_127">
    <path clip-path="url(#pb0467be2ea)" d="M 210.96 814.371676 
L 300.24 814.371676 
" style="fill:none;stroke:#303030;stroke-linecap:square;stroke-width:1.5;"/>
   </g>
   <g id="line2d_128">
    <defs>
     <path d="M 0 3.535534 
L 2.12132 0 
L 0 -3.535534 
L -2.12132 0 
z
" id="mbe3a72b1dd" style="stroke:#303030;stroke-linejoin:miter;"/>
    </defs>
    <g clip-path="url(#pb0467be2ea)">
     <use style="fill:#303030;stroke:#303030;stroke-linejoin:miter;" x="255.6" xlink:href="#mbe3a72b1dd" y="805.212084"/>
     <use style="fill:#303030;stroke:#303030;stroke-linejoin:miter;" x="255.6" xlink:href="#mbe3a72b1dd" y="747.201332"/>
     <use style="fill:#303030;stroke:#303030;stroke-linejoin:miter;" x="255.6" xlink:href="#mbe3a72b1dd" y="734.988542"/>
     <use style="fill:#303030;stroke:#303030;stroke-linejoin:miter;" x="255.6" xlink:href="#mbe3a72b1dd" y="747.201332"/>
     <use style="fill:#303030;stroke:#303030;stroke-linejoin:miter;" x="255.6" xlink:href="#mbe3a72b1dd" y="796.052491"/>
     <use style="fill:#303030;stroke:#303030;stroke-linejoin:miter;" x="255.6" xlink:href="#mbe3a72b1dd" y="786.892899"/>
     <use style="fill:#303030;stroke:#303030;stroke-linejoin:miter;" x="255.6" xlink:href="#mbe3a72b1dd" y="792.999294"/>
    </g>
   </g>
   <g id="line2d_129">
    <path clip-path="url(#pb0467be2ea)" d="M 478.8 863.222836 
L 478.8 866.276033 
" style="fill:none;stroke:#303030;stroke-linecap:square;stroke-width:1.5;"/>
   </g>
   <g id="line2d_130">
    <path clip-path="url(#pb0467be2ea)" d="M 478.8 844.903651 
L 478.8 817.424874 
" style="fill:none;stroke:#303030;stroke-linecap:square;stroke-width:1.5;"/>
   </g>
   <g id="line2d_131">
    <path clip-path="url(#pb0467be2ea)" d="M 434.16 866.276033 
L 523.44 866.276033 
" style="fill:none;stroke:#303030;stroke-linecap:square;stroke-width:1.5;"/>
   </g>
   <g id="line2d_132">
    <path clip-path="url(#pb0467be2ea)" d="M 434.16 817.424874 
L 523.44 817.424874 
" style="fill:none;stroke:#303030;stroke-linecap:square;stroke-width:1.5;"/>
   </g>
   <g id="line2d_133">
    <g clip-path="url(#pb0467be2ea)">
     <use style="fill:#303030;stroke:#303030;stroke-linejoin:miter;" x="478.8" xlink:href="#mbe3a72b1dd" y="808.265281"/>
     <use style="fill:#303030;stroke:#303030;stroke-linejoin:miter;" x="478.8" xlink:href="#mbe3a72b1dd" y="750.254529"/>
     <use style="fill:#303030;stroke:#303030;stroke-linejoin:miter;" x="478.8" xlink:href="#mbe3a72b1dd" y="762.467319"/>
     <use style="fill:#303030;stroke:#303030;stroke-linejoin:miter;" x="478.8" xlink:href="#mbe3a72b1dd" y="759.414122"/>
     <use style="fill:#303030;stroke:#303030;stroke-linejoin:miter;" x="478.8" xlink:href="#mbe3a72b1dd" y="780.786504"/>
     <use style="fill:#303030;stroke:#303030;stroke-linejoin:miter;" x="478.8" xlink:href="#mbe3a72b1dd" y="786.892899"/>
     <use style="fill:#303030;stroke:#303030;stroke-linejoin:miter;" x="478.8" xlink:href="#mbe3a72b1dd" y="814.371676"/>
     <use style="fill:#303030;stroke:#303030;stroke-linejoin:miter;" x="478.8" xlink:href="#mbe3a72b1dd" y="811.318479"/>
     <use style="fill:#303030;stroke:#303030;stroke-linejoin:miter;" x="478.8" xlink:href="#mbe3a72b1dd" y="802.158886"/>
     <use style="fill:#303030;stroke:#303030;stroke-linejoin:miter;" x="478.8" xlink:href="#mbe3a72b1dd" y="811.318479"/>
    </g>
   </g>
   <g id="line2d_134">
    <path clip-path="url(#pb0467be2ea)" d="M 702 863.222836 
L 702 866.276033 
" style="fill:none;stroke:#303030;stroke-linecap:square;stroke-width:1.5;"/>
   </g>
   <g id="line2d_135">
    <path clip-path="url(#pb0467be2ea)" d="M 702 842.613753 
L 702 814.371676 
" style="fill:none;stroke:#303030;stroke-linecap:square;stroke-width:1.5;"/>
   </g>
   <g id="line2d_136">
    <path clip-path="url(#pb0467be2ea)" d="M 657.36 866.276033 
L 746.64 866.276033 
" style="fill:none;stroke:#303030;stroke-linecap:square;stroke-width:1.5;"/>
   </g>
   <g id="line2d_137">
    <path clip-path="url(#pb0467be2ea)" d="M 657.36 814.371676 
L 746.64 814.371676 
" style="fill:none;stroke:#303030;stroke-linecap:square;stroke-width:1.5;"/>
   </g>
   <g id="line2d_138">
    <g clip-path="url(#pb0467be2ea)">
     <use style="fill:#303030;stroke:#303030;stroke-linejoin:miter;" x="702" xlink:href="#mbe3a72b1dd" y="756.360924"/>
     <use style="fill:#303030;stroke:#303030;stroke-linejoin:miter;" x="702" xlink:href="#mbe3a72b1dd" y="762.467319"/>
     <use style="fill:#303030;stroke:#303030;stroke-linejoin:miter;" x="702" xlink:href="#mbe3a72b1dd" y="789.946096"/>
     <use style="fill:#303030;stroke:#303030;stroke-linejoin:miter;" x="702" xlink:href="#mbe3a72b1dd" y="789.946096"/>
     <use style="fill:#303030;stroke:#303030;stroke-linejoin:miter;" x="702" xlink:href="#mbe3a72b1dd" y="796.052491"/>
     <use style="fill:#303030;stroke:#303030;stroke-linejoin:miter;" x="702" xlink:href="#mbe3a72b1dd" y="789.946096"/>
     <use style="fill:#303030;stroke:#303030;stroke-linejoin:miter;" x="702" xlink:href="#mbe3a72b1dd" y="805.212084"/>
     <use style="fill:#303030;stroke:#303030;stroke-linejoin:miter;" x="702" xlink:href="#mbe3a72b1dd" y="796.052491"/>
     <use style="fill:#303030;stroke:#303030;stroke-linejoin:miter;" x="702" xlink:href="#mbe3a72b1dd" y="805.212084"/>
    </g>
   </g>
   <g id="line2d_139">
    <path clip-path="url(#pb0467be2ea)" d="M 925.2 847.956848 
L 925.2 863.222836 
" style="fill:none;stroke:#303030;stroke-linecap:square;stroke-width:1.5;"/>
   </g>
   <g id="line2d_140">
    <path clip-path="url(#pb0467be2ea)" d="M 925.2 783.839702 
L 925.2 765.520517 
" style="fill:none;stroke:#303030;stroke-linecap:square;stroke-width:1.5;"/>
   </g>
   <g id="line2d_141">
    <path clip-path="url(#pb0467be2ea)" d="M 880.56 863.222836 
L 969.84 863.222836 
" style="fill:none;stroke:#303030;stroke-linecap:square;stroke-width:1.5;"/>
   </g>
   <g id="line2d_142">
    <path clip-path="url(#pb0467be2ea)" d="M 880.56 765.520517 
L 969.84 765.520517 
" style="fill:none;stroke:#303030;stroke-linecap:square;stroke-width:1.5;"/>
   </g>
   <g id="line2d_143">
    <g clip-path="url(#pb0467be2ea)">
     <use style="fill:#303030;stroke:#303030;stroke-linejoin:miter;" x="925.2" xlink:href="#mbe3a72b1dd" y="551.796694"/>
     <use style="fill:#303030;stroke:#303030;stroke-linejoin:miter;" x="925.2" xlink:href="#mbe3a72b1dd" y="567.062682"/>
     <use style="fill:#303030;stroke:#303030;stroke-linejoin:miter;" x="925.2" xlink:href="#mbe3a72b1dd" y="628.126631"/>
     <use style="fill:#303030;stroke:#303030;stroke-linejoin:miter;" x="925.2" xlink:href="#mbe3a72b1dd" y="570.115879"/>
     <use style="fill:#303030;stroke:#303030;stroke-linejoin:miter;" x="925.2" xlink:href="#mbe3a72b1dd" y="551.796694"/>
     <use style="fill:#303030;stroke:#303030;stroke-linejoin:miter;" x="925.2" xlink:href="#mbe3a72b1dd" y="628.126631"/>
    </g>
   </g>
   <g id="line2d_144">
    <path clip-path="url(#pb0467be2ea)" d="M 166.32 855.589842 
L 344.88 855.589842 
" style="fill:none;stroke:#303030;stroke-linecap:square;stroke-width:1.5;"/>
   </g>
   <g id="line2d_145">
    <path clip-path="url(#pb0467be2ea)" d="M 389.52 857.116441 
L 568.08 857.116441 
" style="fill:none;stroke:#303030;stroke-linecap:square;stroke-width:1.5;"/>
   </g>
   <g id="line2d_146">
    <path clip-path="url(#pb0467be2ea)" d="M 612.72 857.116441 
L 791.28 857.116441 
" style="fill:none;stroke:#303030;stroke-linecap:square;stroke-width:1.5;"/>
   </g>
   <g id="line2d_147">
    <path clip-path="url(#pb0467be2ea)" d="M 835.92 820.478071 
L 1014.48 820.478071 
" style="fill:none;stroke:#303030;stroke-linecap:square;stroke-width:1.5;"/>
   </g>
   <g id="patch_100">
    <path d="M 144 882 
L 144 536.072727 
" style="fill:none;stroke:#000000;stroke-linecap:square;stroke-linejoin:miter;stroke-width:0.8;"/>
   </g>
   <g id="patch_101">
    <path d="M 1036.8 882 
L 1036.8 536.072727 
" style="fill:none;stroke:#000000;stroke-linecap:square;stroke-linejoin:miter;stroke-width:0.8;"/>
   </g>
   <g id="patch_102">
    <path d="M 144 882 
L 1036.8 882 
" style="fill:none;stroke:#000000;stroke-linecap:square;stroke-linejoin:miter;stroke-width:0.8;"/>
   </g>
   <g id="patch_103">
    <path d="M 144 536.072727 
L 1036.8 536.072727 
" style="fill:none;stroke:#000000;stroke-linecap:square;stroke-linejoin:miter;stroke-width:0.8;"/>
   </g>
  </g>
 </g>
 <defs>
  <clipPath id="p946f3f72b7">
   <rect height="345.927273" width="892.8" x="144" y="120.96"/>
  </clipPath>
  <clipPath id="pb0467be2ea">
   <rect height="345.927273" width="892.8" x="144" y="536.072727"/>
  </clipPath>
 </defs>
</svg>
